<svg xmlns="http://www.w3.org/2000/svg" xmlns:xlink="http://www.w3.org/1999/xlink" width="600" zoomAndPan="magnify" viewBox="0 0 450 225" height="300" preserveAspectRatio="xMidYMid meet" version="1.0"><defs><g/><clipPath id="57d0ae9859"><path d="M 174.296875 21.003906 L 275.546875 21.003906 L 275.546875 122.253906 L 174.296875 122.253906 Z M 174.296875 21.003906 " clip-rule="nonzero"/></clipPath><clipPath id="dbb67c408d"><path d="M 38 140.023438 L 54 140.023438 L 54 153 L 38 153 Z M 38 140.023438 " clip-rule="nonzero"/></clipPath><clipPath id="b806abf4e5"><path d="M 35.449219 151 L 56.449219 151 L 56.449219 169.273438 L 35.449219 169.273438 Z M 35.449219 151 " clip-rule="nonzero"/></clipPath></defs><rect x="-45" width="540" fill="#ffffff" y="-22.5" height="270" fill-opacity="1"/><rect x="-45" width="540" fill="#ffffff" y="-22.5" height="270" fill-opacity="1"/><g clip-path="url(#57d0ae9859)"><path fill="#890053" d="M 275.546875 71.628906 C 275.546875 73.285156 275.464844 74.941406 275.304688 76.589844 C 275.140625 78.242188 274.898438 79.878906 274.574219 81.503906 C 274.25 83.132812 273.847656 84.738281 273.367188 86.324219 C 272.886719 87.910156 272.328125 89.46875 271.695312 91 C 271.058594 92.535156 270.351562 94.03125 269.570312 95.492188 C 268.789062 96.957031 267.9375 98.375 267.015625 99.753906 C 266.09375 101.132812 265.109375 102.464844 264.054688 103.746094 C 263.003906 105.027344 261.890625 106.253906 260.71875 107.425781 C 259.546875 108.597656 258.320312 109.710938 257.039062 110.761719 C 255.757812 111.8125 254.425781 112.800781 253.046875 113.722656 C 251.671875 114.644531 250.25 115.496094 248.789062 116.277344 C 247.324219 117.058594 245.828125 117.765625 244.296875 118.398438 C 242.765625 119.035156 241.207031 119.59375 239.617188 120.074219 C 238.03125 120.554688 236.425781 120.957031 234.800781 121.28125 C 233.171875 121.605469 231.535156 121.847656 229.886719 122.007812 C 228.234375 122.171875 226.582031 122.253906 224.921875 122.253906 C 223.265625 122.253906 221.609375 122.171875 219.960938 122.007812 C 218.3125 121.847656 216.671875 121.605469 215.046875 121.28125 C 213.421875 120.957031 211.8125 120.554688 210.226562 120.074219 C 208.640625 119.59375 207.082031 119.035156 205.550781 118.398438 C 204.019531 117.765625 202.519531 117.058594 201.058594 116.277344 C 199.597656 115.496094 198.175781 114.644531 196.796875 113.722656 C 195.417969 112.800781 194.089844 111.8125 192.804688 110.761719 C 191.523438 109.710938 190.296875 108.597656 189.125 107.425781 C 187.953125 106.253906 186.839844 105.027344 185.789062 103.746094 C 184.738281 102.464844 183.75 101.132812 182.828125 99.753906 C 181.910156 98.375 181.058594 96.957031 180.277344 95.492188 C 179.492188 94.03125 178.785156 92.535156 178.152344 91 C 177.515625 89.46875 176.960938 87.910156 176.476562 86.324219 C 175.996094 84.738281 175.59375 83.132812 175.269531 81.503906 C 174.945312 79.878906 174.703125 78.242188 174.542969 76.589844 C 174.378906 74.941406 174.296875 73.285156 174.296875 71.628906 C 174.296875 69.96875 174.378906 68.316406 174.542969 66.667969 C 174.703125 65.015625 174.945312 63.378906 175.269531 61.753906 C 175.59375 60.125 175.996094 58.519531 176.476562 56.933594 C 176.960938 55.347656 177.515625 53.785156 178.152344 52.253906 C 178.785156 50.722656 179.492188 49.226562 180.277344 47.765625 C 181.058594 46.300781 181.910156 44.882812 182.828125 43.503906 C 183.75 42.125 184.738281 40.792969 185.789062 39.511719 C 186.839844 38.230469 187.953125 37.003906 189.125 35.832031 C 190.296875 34.660156 191.523438 33.546875 192.804688 32.496094 C 194.089844 31.441406 195.417969 30.457031 196.796875 29.535156 C 198.175781 28.613281 199.597656 27.761719 201.058594 26.980469 C 202.519531 26.199219 204.019531 25.492188 205.550781 24.855469 C 207.082031 24.222656 208.640625 23.664062 210.226562 23.183594 C 211.8125 22.703125 213.421875 22.300781 215.046875 21.976562 C 216.671875 21.652344 218.3125 21.410156 219.960938 21.246094 C 221.609375 21.085938 223.265625 21.003906 224.921875 21.003906 C 226.582031 21.003906 228.234375 21.085938 229.886719 21.246094 C 231.535156 21.410156 233.171875 21.652344 234.800781 21.976562 C 236.425781 22.300781 238.03125 22.703125 239.617188 23.183594 C 241.207031 23.664062 242.765625 24.222656 244.296875 24.855469 C 245.828125 25.492188 247.324219 26.199219 248.789062 26.980469 C 250.25 27.761719 251.671875 28.613281 253.046875 29.535156 C 254.425781 30.457031 255.757812 31.441406 257.039062 32.496094 C 258.320312 33.546875 259.546875 34.660156 260.71875 35.832031 C 261.890625 37.003906 263.003906 38.230469 264.054688 39.511719 C 265.109375 40.792969 266.09375 42.125 267.015625 43.503906 C 267.9375 44.882812 268.789062 46.300781 269.570312 47.765625 C 270.351562 49.226562 271.058594 50.722656 271.695312 52.253906 C 272.328125 53.785156 272.886719 55.347656 273.367188 56.933594 C 273.847656 58.519531 274.25 60.125 274.574219 61.753906 C 274.898438 63.378906 275.140625 65.015625 275.304688 66.667969 C 275.464844 68.316406 275.546875 69.96875 275.546875 71.628906 Z M 275.546875 71.628906 " fill-opacity="1" fill-rule="nonzero"/></g><g clip-path="url(#dbb67c408d)"><path fill="#383536" d="M 40.0625 152.523438 L 40.0625 145.914062 C 40.0625 144.867188 40.0625 142.171875 45.1875 142.171875 L 46.425781 142.171875 C 51.457031 142.171875 51.835938 144.867188 51.835938 145.914062 L 51.835938 152.523438 L 53.757812 152.523438 L 53.757812 144.921875 C 53.757812 143.550781 53.253906 140.027344 46.578125 140.027344 L 44.941406 140.027344 C 38.140625 140.027344 38.140625 143.550781 38.140625 144.921875 L 38.140625 152.523438 L 40.0625 152.523438 " fill-opacity="1" fill-rule="nonzero"/></g><g clip-path="url(#b806abf4e5)"><path fill="#f8a62b" d="M 35.484375 151.746094 C 35.480469 151.796875 35.476562 151.84375 35.476562 151.894531 L 35.476562 166.773438 C 35.476562 168.15625 36.660156 169.277344 38.113281 169.277344 L 53.78125 169.277344 C 55.242188 169.277344 56.421875 168.15625 56.421875 166.773438 L 56.421875 151.894531 C 56.421875 151.84375 56.417969 151.796875 56.414062 151.746094 L 35.484375 151.746094 " fill-opacity="1" fill-rule="nonzero"/></g><path fill="#fbca5d" d="M 52.992188 168.636719 L 38.953125 168.636719 C 38.0625 168.636719 37.285156 168.171875 36.882812 167.484375 C 37.757812 167.679688 38.679688 167.761719 39.601562 167.761719 C 41.210938 167.761719 42.816406 167.511719 44.140625 167.175781 C 46.449219 166.589844 48.746094 165.464844 50.53125 163.859375 C 52.625 161.976562 53.453125 159.363281 54.355469 156.769531 C 54.785156 155.527344 55.164062 154.242188 55.257812 152.925781 L 55.347656 152.925781 C 55.351562 152.972656 55.355469 153.015625 55.355469 153.058594 L 55.355469 166.394531 C 55.355469 167.632812 54.296875 168.636719 52.992188 168.636719 " fill-opacity="1" fill-rule="nonzero"/><path fill="#383536" d="M 48.199219 158.5 C 48.199219 157.242188 47.191406 156.222656 45.949219 156.222656 C 44.707031 156.222656 43.699219 157.242188 43.699219 158.5 C 43.699219 159.476562 44.308594 160.3125 45.164062 160.632812 L 45.164062 164.011719 C 45.164062 164.449219 45.515625 164.804688 45.949219 164.804688 C 46.382812 164.804688 46.734375 164.449219 46.734375 164.011719 L 46.734375 160.632812 C 47.589844 160.3125 48.199219 159.476562 48.199219 158.5 " fill-opacity="1" fill-rule="nonzero"/><path fill="#fbca5d" d="M 45.128906 165.148438 C 44.664062 165.148438 44.289062 164.765625 44.289062 164.292969 L 44.289062 160.660156 C 43.371094 160.3125 42.71875 159.417969 42.71875 158.363281 C 42.71875 157.011719 43.800781 155.914062 45.128906 155.914062 C 45.214844 155.914062 45.296875 155.917969 45.378906 155.925781 C 44.164062 156.054688 43.21875 157.097656 43.21875 158.363281 C 43.21875 159.417969 43.871094 160.3125 44.785156 160.660156 L 44.785156 164.292969 C 44.785156 164.675781 45.035156 165 45.378906 165.109375 C 45.300781 165.132812 45.214844 165.148438 45.128906 165.148438 " fill-opacity="1" fill-rule="nonzero"/><path fill="#656263" d="M 53.132812 151.238281 L 53.117188 151.21875 C 53.117188 151.21875 53.097656 150.617188 53.066406 149.710938 C 53.035156 148.808594 53.011719 147.601562 52.984375 146.398438 C 52.972656 146.09375 52.964844 145.792969 52.957031 145.496094 C 52.953125 145.351562 52.945312 145.203125 52.945312 145.054688 C 52.941406 144.984375 52.941406 144.910156 52.941406 144.839844 C 52.941406 144.765625 52.9375 144.699219 52.933594 144.632812 C 52.929688 144.367188 52.878906 144.117188 52.824219 143.878906 C 52.789062 143.761719 52.757812 143.648438 52.714844 143.539062 C 52.679688 143.429688 52.628906 143.328125 52.585938 143.226562 C 52.492188 143.035156 52.398438 142.855469 52.300781 142.707031 C 52.207031 142.554688 52.113281 142.429688 52.035156 142.324219 C 51.875 142.117188 51.773438 142.007812 51.773438 142.007812 L 51.773438 141.980469 L 51.796875 141.976562 C 51.796875 141.976562 51.929688 142.054688 52.132812 142.230469 C 52.234375 142.316406 52.351562 142.429688 52.476562 142.570312 C 52.601562 142.710938 52.730469 142.882812 52.851562 143.082031 C 52.972656 143.28125 53.089844 143.511719 53.175781 143.769531 C 53.199219 143.835938 53.214844 143.90625 53.234375 143.972656 C 53.253906 144.039062 53.269531 144.109375 53.28125 144.179688 C 53.292969 144.25 53.304688 144.324219 53.316406 144.398438 C 53.320312 144.472656 53.324219 144.546875 53.328125 144.621094 C 53.332031 144.695312 53.332031 144.769531 53.328125 144.839844 C 53.328125 144.910156 53.324219 144.984375 53.324219 145.054688 C 53.324219 145.203125 53.316406 145.351562 53.3125 145.496094 C 53.304688 145.792969 53.296875 146.09375 53.285156 146.398438 C 53.257812 147.601562 53.234375 148.808594 53.203125 149.710938 C 53.171875 150.617188 53.152344 151.21875 53.152344 151.21875 L 53.132812 151.238281 " fill-opacity="1" fill-rule="nonzero"/><path fill="#656263" d="M 39.546875 151.203125 L 39.53125 151.1875 C 39.53125 151.1875 39.507812 150.8125 39.476562 150.257812 C 39.441406 149.699219 39.414062 148.957031 39.382812 148.214844 C 39.371094 148.027344 39.363281 147.84375 39.351562 147.660156 C 39.34375 147.476562 39.332031 147.296875 39.332031 147.121094 C 39.332031 146.949219 39.332031 146.78125 39.34375 146.621094 C 39.347656 146.460938 39.359375 146.308594 39.371094 146.167969 C 39.414062 145.609375 39.5 145.238281 39.5 145.238281 L 39.523438 145.222656 L 39.535156 145.238281 C 39.535156 145.238281 39.625 145.609375 39.675781 146.167969 C 39.6875 146.308594 39.699219 146.457031 39.707031 146.617188 C 39.71875 146.777344 39.722656 146.945312 39.726562 147.121094 C 39.726562 147.292969 39.71875 147.472656 39.707031 147.65625 C 39.703125 147.839844 39.695312 148.027344 39.683594 148.210938 C 39.660156 148.957031 39.640625 149.699219 39.613281 150.257812 C 39.589844 150.8125 39.570312 151.1875 39.570312 151.1875 L 39.546875 151.203125 " fill-opacity="1" fill-rule="nonzero"/><g fill="#f2c2b1" fill-opacity="1"><g transform="translate(190.29676, 82.861272)"><g><path d="M 19.53125 -38.945312 C 9.417969 -38.945312 3.234375 -32.300781 3.234375 -24.039062 C 3.234375 -16.988281 8.089844 -13.175781 14.042969 -13.175781 C 18.78125 -13.175781 21.785156 -15.660156 23.515625 -18.027344 C 22.824219 -10.515625 18.894531 -3.121094 13.636719 -3.121094 C 7.742188 -3.121094 7.859375 -9.304688 4.621094 -9.304688 C 3.292969 -9.304688 1.90625 -8.261719 1.90625 -6.242188 C 1.90625 -2.425781 5.664062 0.980469 12.308594 0.980469 C 26.984375 0.980469 33.109375 -12.132812 33.109375 -23.632812 C 33.109375 -34.726562 27.101562 -38.945312 19.53125 -38.945312 Z M 19.761719 -35.074219 C 22.996094 -35.074219 24.671875 -31.839844 24.671875 -28.253906 C 24.671875 -22.652344 21.148438 -17.449219 17.277344 -17.449219 C 14.097656 -17.449219 12.421875 -19.992188 12.421875 -23.804688 C 12.421875 -28.140625 14.5625 -35.074219 19.761719 -35.074219 Z M 19.761719 -35.074219 "/></g></g></g><g fill="#f2c2b1" fill-opacity="1"><g transform="translate(223.57469, 82.861272)"><g><path d="M 16.121094 0.980469 C 26.984375 0.980469 35.882812 -8.261719 35.882812 -23.804688 C 35.882812 -34.207031 29.238281 -38.945312 21.839844 -38.945312 C 11.613281 -38.945312 1.964844 -30.105469 1.964844 -14.273438 C 1.964844 -3.640625 8.78125 0.980469 16.121094 0.980469 Z M 16.351562 -3.179688 C 12.941406 -3.179688 10.921875 -5.429688 10.921875 -11.902344 C 10.921875 -24.382812 15.253906 -35.132812 21.496094 -35.132812 C 24.960938 -35.132812 26.984375 -32.183594 26.984375 -26.058594 C 26.984375 -13.636719 22.765625 -3.179688 16.351562 -3.179688 Z M 16.351562 -3.179688 "/></g></g></g><g fill="#f2c2b1" fill-opacity="1"><g transform="translate(203.499176, 105.836723)"><g><path d="M 3.28125 -12.886719 L 1.742188 -1.5625 L 1.191406 -1.5625 C 0.59375 -1.5625 0.242188 -1.167969 0.242188 -0.574219 C 0.242188 -0.265625 0.351562 -0.0898438 0.417969 0 C 1.011719 0.0429688 2.953125 0.0898438 6.410156 0.0898438 C 11.300781 0.0898438 15 -2.597656 15 -8.722656 C 15 -13.152344 11.917969 -14.5625 8.414062 -14.5625 C 5.265625 -14.5625 2.929688 -14.515625 2.378906 -14.472656 C 2.292969 -14.363281 2.027344 -14.097656 2.027344 -13.613281 C 2.027344 -13.152344 2.292969 -12.886719 2.730469 -12.886719 Z M 6.566406 -13.0625 C 7.027344 -13.128906 7.445312 -13.152344 7.863281 -13.152344 C 10.175781 -13.152344 11.566406 -12.027344 11.566406 -8.921875 C 11.566406 -4.230469 9.496094 -1.386719 5.949219 -1.386719 C 5.617188 -1.386719 5.285156 -1.410156 4.957031 -1.433594 Z M 6.566406 -13.0625 "/></g></g></g><g fill="#f2c2b1" fill-opacity="1"><g transform="translate(218.739365, 105.836723)"><g><path d="M 2.554688 -13.195312 C 2.554688 -12.3125 3.0625 -11.808594 4.25 -11.808594 C 5.441406 -11.808594 6.144531 -12.558594 6.144531 -13.414062 C 6.144531 -14.253906 5.617188 -14.78125 4.429688 -14.78125 C 3.28125 -14.78125 2.554688 -14.054688 2.554688 -13.195312 Z M 2.160156 -8.085938 L 2.160156 -8.0625 L 0.835938 0 L 3.898438 0 L 5.285156 -8.855469 C 5.464844 -9.914062 4.957031 -10.308594 4.339844 -10.308594 C 3.964844 -10.308594 3.679688 -10.199219 3.148438 -10.023438 L 0.703125 -9.140625 C 0.574219 -9.03125 0.527344 -8.789062 0.527344 -8.589844 C 0.527344 -8.039062 0.925781 -7.644531 1.496094 -7.820312 Z M 2.160156 -8.085938 "/></g></g></g><g fill="#f2c2b1" fill-opacity="1"><g transform="translate(224.729733, 105.836723)"><g><path d="M 10.113281 -2.070312 L 10.113281 -2.09375 L 11.410156 -10.113281 L 8.371094 -10.113281 L 8.238281 -9.296875 L 8.21875 -9.296875 C 7.796875 -9.804688 7.09375 -10.332031 5.882812 -10.332031 C 3.261719 -10.332031 0.460938 -7.6875 0.460938 -3.480469 C 0.460938 -1.191406 1.675781 0.199219 3.523438 0.199219 C 5.285156 0.199219 6.433594 -0.945312 7.003906 -1.828125 L 7.050781 -1.828125 L 6.984375 -1.320312 C 6.875 -0.265625 7.335938 0.152344 7.929688 0.152344 C 8.28125 0.152344 8.613281 0.0664062 9.140625 -0.109375 L 11.542969 -0.96875 C 11.652344 -1.101562 11.71875 -1.34375 11.71875 -1.5625 C 11.71875 -2.179688 11.324219 -2.511719 10.773438 -2.335938 Z M 7.402344 -4.140625 C 7.179688 -2.839844 6.082031 -1.585938 4.914062 -1.585938 C 4.054688 -1.585938 3.699219 -2.269531 3.699219 -3.414062 C 3.699219 -5.835938 4.800781 -8.769531 6.675781 -8.769531 C 7.378906 -8.769531 7.796875 -8.460938 8.039062 -8.019531 Z M 7.402344 -4.140625 "/></g></g></g><g fill="#f2c2b1" fill-opacity="1"><g transform="translate(236.864626, 105.836723)"><g><path d="M 1.144531 -6.960938 C 1.144531 -3.8125 5.507812 -4.757812 5.507812 -2.710938 C 5.507812 -1.785156 4.757812 -1.277344 3.921875 -1.277344 C 2.09375 -1.277344 1.871094 -2.953125 0.835938 -2.953125 C 0.375 -2.953125 0.0429688 -2.644531 0.0429688 -2.070312 C 0.0429688 -0.882812 1.300781 0.308594 3.722656 0.308594 C 6.191406 0.308594 8.878906 -0.882812 8.878906 -3.589844 C 8.878906 -6.761719 4.515625 -6.101562 4.515625 -7.820312 C 4.515625 -8.570312 5.089844 -9.074219 5.835938 -9.074219 C 7.378906 -9.074219 7.335938 -7.84375 8.328125 -7.84375 C 8.8125 -7.84375 9.121094 -8.128906 9.121094 -8.636719 C 9.121094 -9.539062 8.21875 -10.417969 5.902344 -10.417969 C 2.796875 -10.417969 1.144531 -8.789062 1.144531 -6.960938 Z M 1.144531 -6.960938 "/></g></g></g><g fill="#000000" fill-opacity="1"><g transform="translate(64.029859, 165.644541)"><g><path d="M 7.328125 -6.84375 C 7.648438 -5.164062 8.632812 -4.328125 10.28125 -4.328125 C 11.40625 -4.328125 12.203125 -4.828125 12.671875 -5.828125 C 13.140625 -6.828125 13.375 -8.457031 13.375 -10.71875 C 12.90625 -10.0625 12.265625 -9.550781 11.453125 -9.1875 C 10.648438 -8.820312 9.742188 -8.640625 8.734375 -8.640625 C 7.367188 -8.640625 6.148438 -8.921875 5.078125 -9.484375 C 4.015625 -10.054688 3.179688 -10.898438 2.578125 -12.015625 C 1.972656 -13.140625 1.671875 -14.503906 1.671875 -16.109375 C 1.671875 -17.679688 1.992188 -19.054688 2.640625 -20.234375 C 3.296875 -21.410156 4.222656 -22.316406 5.421875 -22.953125 C 6.628906 -23.597656 8.054688 -23.921875 9.703125 -23.921875 C 12.859375 -23.921875 15.066406 -22.9375 16.328125 -20.96875 C 17.585938 -19.007812 18.21875 -16.117188 18.21875 -12.296875 C 18.21875 -9.515625 17.96875 -7.222656 17.46875 -5.421875 C 16.96875 -3.617188 16.125 -2.25 14.9375 -1.3125 C 13.75 -0.375 12.128906 0.09375 10.078125 0.09375 C 8.460938 0.09375 7.082031 -0.222656 5.9375 -0.859375 C 4.789062 -1.503906 3.914062 -2.347656 3.3125 -3.390625 C 2.707031 -4.441406 2.359375 -5.59375 2.265625 -6.84375 Z M 9.984375 -12.96875 C 10.878906 -12.96875 11.59375 -13.238281 12.125 -13.78125 C 12.664062 -14.320312 12.9375 -15.0625 12.9375 -16 C 12.9375 -17.03125 12.65625 -17.820312 12.09375 -18.375 C 11.539062 -18.925781 10.796875 -19.203125 9.859375 -19.203125 C 8.921875 -19.203125 8.175781 -18.921875 7.625 -18.359375 C 7.082031 -17.796875 6.8125 -17.023438 6.8125 -16.046875 C 6.8125 -15.117188 7.082031 -14.375 7.625 -13.8125 C 8.175781 -13.25 8.960938 -12.96875 9.984375 -12.96875 Z M 9.984375 -12.96875 "/></g></g></g><g fill="#000000" fill-opacity="1"><g transform="translate(83.711643, 165.644541)"><g><path d="M 1.4375 -12 C 1.4375 -15.675781 2.144531 -18.570312 3.5625 -20.6875 C 4.988281 -22.800781 7.28125 -23.859375 10.4375 -23.859375 C 13.59375 -23.859375 15.878906 -22.800781 17.296875 -20.6875 C 18.722656 -18.570312 19.4375 -15.675781 19.4375 -12 C 19.4375 -8.289062 18.722656 -5.378906 17.296875 -3.265625 C 15.878906 -1.148438 13.59375 -0.09375 10.4375 -0.09375 C 7.28125 -0.09375 4.988281 -1.148438 3.5625 -3.265625 C 2.144531 -5.378906 1.4375 -8.289062 1.4375 -12 Z M 14.0625 -12 C 14.0625 -14.15625 13.820312 -15.816406 13.34375 -16.984375 C 12.875 -18.148438 11.90625 -18.734375 10.4375 -18.734375 C 8.96875 -18.734375 7.992188 -18.148438 7.515625 -16.984375 C 7.046875 -15.816406 6.8125 -14.15625 6.8125 -12 C 6.8125 -10.550781 6.894531 -9.351562 7.0625 -8.40625 C 7.238281 -7.457031 7.585938 -6.6875 8.109375 -6.09375 C 8.640625 -5.507812 9.414062 -5.21875 10.4375 -5.21875 C 11.457031 -5.21875 12.226562 -5.507812 12.75 -6.09375 C 13.28125 -6.6875 13.628906 -7.457031 13.796875 -8.40625 C 13.972656 -9.351562 14.0625 -10.550781 14.0625 -12 Z M 14.0625 -12 "/></g></g></g><g fill="#000000" fill-opacity="1"><g transform="translate(104.577532, 165.644541)"><g/></g></g><g fill="#000000" fill-opacity="1"><g transform="translate(111.362154, 165.644541)"><g><path d="M 10.40625 -22.46875 C 12.769531 -22.46875 14.835938 -22 16.609375 -21.0625 C 18.378906 -20.125 19.75 -18.804688 20.71875 -17.109375 C 21.695312 -15.410156 22.1875 -13.453125 22.1875 -11.234375 C 22.1875 -9.035156 21.695312 -7.082031 20.71875 -5.375 C 19.75 -3.664062 18.375 -2.34375 16.59375 -1.40625 C 14.8125 -0.46875 12.75 0 10.40625 0 L 1.984375 0 L 1.984375 -22.46875 Z M 10.046875 -4.734375 C 12.117188 -4.734375 13.726562 -5.296875 14.875 -6.421875 C 16.03125 -7.554688 16.609375 -9.160156 16.609375 -11.234375 C 16.609375 -13.304688 16.03125 -14.914062 14.875 -16.0625 C 13.726562 -17.21875 12.117188 -17.796875 10.046875 -17.796875 L 7.453125 -17.796875 L 7.453125 -4.734375 Z M 10.046875 -4.734375 "/></g></g></g><g fill="#000000" fill-opacity="1"><g transform="translate(134.628271, 165.644541)"><g><path d="M 4.734375 -19.71875 C 3.773438 -19.71875 2.988281 -20 2.375 -20.5625 C 1.769531 -21.132812 1.46875 -21.835938 1.46875 -22.671875 C 1.46875 -23.523438 1.769531 -24.234375 2.375 -24.796875 C 2.988281 -25.359375 3.773438 -25.640625 4.734375 -25.640625 C 5.671875 -25.640625 6.441406 -25.359375 7.046875 -24.796875 C 7.660156 -24.234375 7.96875 -23.523438 7.96875 -22.671875 C 7.96875 -21.835938 7.660156 -21.132812 7.046875 -20.5625 C 6.441406 -20 5.671875 -19.71875 4.734375 -19.71875 Z M 7.453125 -17.859375 L 7.453125 0 L 1.984375 0 L 1.984375 -17.859375 Z M 7.453125 -17.859375 "/></g></g></g><g fill="#000000" fill-opacity="1"><g transform="translate(144.069125, 165.644541)"><g><path d="M 0.890625 -8.96875 C 0.890625 -10.800781 1.238281 -12.410156 1.9375 -13.796875 C 2.632812 -15.179688 3.578125 -16.25 4.765625 -17 C 5.960938 -17.75 7.296875 -18.125 8.765625 -18.125 C 10.023438 -18.125 11.128906 -17.863281 12.078125 -17.34375 C 13.035156 -16.832031 13.769531 -16.160156 14.28125 -15.328125 L 14.28125 -17.859375 L 19.75 -17.859375 L 19.75 0 L 14.28125 0 L 14.28125 -2.53125 C 13.75 -1.695312 13.003906 -1.023438 12.046875 -0.515625 C 11.097656 -0.00390625 9.992188 0.25 8.734375 0.25 C 7.285156 0.25 5.960938 -0.125 4.765625 -0.875 C 3.578125 -1.632812 2.632812 -2.710938 1.9375 -4.109375 C 1.238281 -5.515625 0.890625 -7.132812 0.890625 -8.96875 Z M 14.28125 -8.9375 C 14.28125 -10.300781 13.898438 -11.375 13.140625 -12.15625 C 12.378906 -12.945312 11.457031 -13.34375 10.375 -13.34375 C 9.28125 -13.34375 8.351562 -12.953125 7.59375 -12.171875 C 6.84375 -11.398438 6.46875 -10.332031 6.46875 -8.96875 C 6.46875 -7.601562 6.84375 -6.519531 7.59375 -5.71875 C 8.351562 -4.914062 9.28125 -4.515625 10.375 -4.515625 C 11.457031 -4.515625 12.378906 -4.910156 13.140625 -5.703125 C 13.898438 -6.492188 14.28125 -7.570312 14.28125 -8.9375 Z M 14.28125 -8.9375 "/></g></g></g><g fill="#000000" fill-opacity="1"><g transform="translate(165.799095, 165.644541)"><g><path d="M 9.25 0.25 C 7.695312 0.25 6.3125 -0.015625 5.09375 -0.546875 C 3.875 -1.078125 2.910156 -1.804688 2.203125 -2.734375 C 1.503906 -3.660156 1.113281 -4.703125 1.03125 -5.859375 L 6.4375 -5.859375 C 6.5 -5.242188 6.785156 -4.742188 7.296875 -4.359375 C 7.804688 -3.972656 8.4375 -3.78125 9.1875 -3.78125 C 9.875 -3.78125 10.398438 -3.910156 10.765625 -4.171875 C 11.140625 -4.441406 11.328125 -4.789062 11.328125 -5.21875 C 11.328125 -5.726562 11.0625 -6.101562 10.53125 -6.34375 C 10 -6.59375 9.132812 -6.867188 7.9375 -7.171875 C 6.65625 -7.472656 5.585938 -7.785156 4.734375 -8.109375 C 3.878906 -8.441406 3.140625 -8.960938 2.515625 -9.671875 C 1.898438 -10.390625 1.59375 -11.359375 1.59375 -12.578125 C 1.59375 -13.609375 1.875 -14.539062 2.4375 -15.375 C 3.007812 -16.21875 3.84375 -16.882812 4.9375 -17.375 C 6.039062 -17.875 7.351562 -18.125 8.875 -18.125 C 11.113281 -18.125 12.878906 -17.566406 14.171875 -16.453125 C 15.460938 -15.347656 16.203125 -13.875 16.390625 -12.03125 L 11.328125 -12.03125 C 11.242188 -12.65625 10.972656 -13.148438 10.515625 -13.515625 C 10.054688 -13.878906 9.453125 -14.0625 8.703125 -14.0625 C 8.066406 -14.0625 7.578125 -13.9375 7.234375 -13.6875 C 6.890625 -13.4375 6.71875 -13.097656 6.71875 -12.671875 C 6.71875 -12.160156 6.988281 -11.773438 7.53125 -11.515625 C 8.082031 -11.265625 8.929688 -11.007812 10.078125 -10.75 C 11.398438 -10.414062 12.476562 -10.082031 13.3125 -9.75 C 14.144531 -9.414062 14.875 -8.878906 15.5 -8.140625 C 16.132812 -7.410156 16.460938 -6.425781 16.484375 -5.1875 C 16.484375 -4.144531 16.191406 -3.210938 15.609375 -2.390625 C 15.023438 -1.566406 14.179688 -0.921875 13.078125 -0.453125 C 11.972656 0.015625 10.695312 0.25 9.25 0.25 Z M 9.25 0.25 "/></g></g></g><g fill="#000000" fill-opacity="1"><g transform="translate(183.656709, 165.644541)"><g/></g></g><g fill="#000000" fill-opacity="1"><g transform="translate(190.441331, 165.644541)"><g><path d="M 0.890625 -8.96875 C 0.890625 -10.800781 1.238281 -12.410156 1.9375 -13.796875 C 2.632812 -15.179688 3.578125 -16.25 4.765625 -17 C 5.960938 -17.75 7.296875 -18.125 8.765625 -18.125 C 9.941406 -18.125 11.015625 -17.875 11.984375 -17.375 C 12.960938 -16.882812 13.726562 -16.226562 14.28125 -15.40625 L 14.28125 -23.6875 L 19.75 -23.6875 L 19.75 0 L 14.28125 0 L 14.28125 -2.5625 C 13.769531 -1.707031 13.035156 -1.023438 12.078125 -0.515625 C 11.128906 -0.00390625 10.023438 0.25 8.765625 0.25 C 7.296875 0.25 5.960938 -0.125 4.765625 -0.875 C 3.578125 -1.632812 2.632812 -2.710938 1.9375 -4.109375 C 1.238281 -5.515625 0.890625 -7.132812 0.890625 -8.96875 Z M 14.28125 -8.9375 C 14.28125 -10.300781 13.898438 -11.375 13.140625 -12.15625 C 12.378906 -12.945312 11.457031 -13.34375 10.375 -13.34375 C 9.28125 -13.34375 8.351562 -12.953125 7.59375 -12.171875 C 6.84375 -11.398438 6.46875 -10.332031 6.46875 -8.96875 C 6.46875 -7.601562 6.84375 -6.519531 7.59375 -5.71875 C 8.351562 -4.914062 9.28125 -4.515625 10.375 -4.515625 C 11.457031 -4.515625 12.378906 -4.910156 13.140625 -5.703125 C 13.898438 -6.492188 14.28125 -7.570312 14.28125 -8.9375 Z M 14.28125 -8.9375 "/></g></g></g><g fill="#000000" fill-opacity="1"><g transform="translate(212.171301, 165.644541)"><g><path d="M 18.828125 -9.21875 C 18.828125 -8.707031 18.796875 -8.175781 18.734375 -7.625 L 6.34375 -7.625 C 6.425781 -6.507812 6.78125 -5.65625 7.40625 -5.0625 C 8.039062 -4.476562 8.816406 -4.1875 9.734375 -4.1875 C 11.097656 -4.1875 12.046875 -4.765625 12.578125 -5.921875 L 18.40625 -5.921875 C 18.101562 -4.742188 17.5625 -3.6875 16.78125 -2.75 C 16.007812 -1.8125 15.035156 -1.078125 13.859375 -0.546875 C 12.691406 -0.015625 11.378906 0.25 9.921875 0.25 C 8.171875 0.25 6.613281 -0.117188 5.25 -0.859375 C 3.882812 -1.609375 2.816406 -2.675781 2.046875 -4.0625 C 1.273438 -5.445312 0.890625 -7.070312 0.890625 -8.9375 C 0.890625 -10.789062 1.269531 -12.410156 2.03125 -13.796875 C 2.789062 -15.179688 3.851562 -16.25 5.21875 -17 C 6.582031 -17.75 8.148438 -18.125 9.921875 -18.125 C 11.648438 -18.125 13.1875 -17.757812 14.53125 -17.03125 C 15.875 -16.300781 16.925781 -15.265625 17.6875 -13.921875 C 18.445312 -12.578125 18.828125 -11.007812 18.828125 -9.21875 Z M 13.21875 -10.65625 C 13.21875 -11.59375 12.894531 -12.335938 12.25 -12.890625 C 11.613281 -13.453125 10.816406 -13.734375 9.859375 -13.734375 C 8.941406 -13.734375 8.164062 -13.46875 7.53125 -12.9375 C 6.90625 -12.40625 6.519531 -11.644531 6.375 -10.65625 Z M 13.21875 -10.65625 "/></g></g></g><g fill="#000000" fill-opacity="1"><g transform="translate(231.885087, 165.644541)"><g/></g></g><g fill="#000000" fill-opacity="1"><g transform="translate(238.669709, 165.644541)"><g><path d="M 16.90625 -15.375 C 16.5 -16.113281 15.914062 -16.679688 15.15625 -17.078125 C 14.394531 -17.472656 13.503906 -17.671875 12.484375 -17.671875 C 10.710938 -17.671875 9.289062 -17.085938 8.21875 -15.921875 C 7.15625 -14.765625 6.625 -13.210938 6.625 -11.265625 C 6.625 -9.191406 7.179688 -7.570312 8.296875 -6.40625 C 9.421875 -5.25 10.96875 -4.671875 12.9375 -4.671875 C 14.28125 -4.671875 15.414062 -5.007812 16.34375 -5.6875 C 17.269531 -6.375 17.945312 -7.359375 18.375 -8.640625 L 11.421875 -8.640625 L 11.421875 -12.671875 L 23.34375 -12.671875 L 23.34375 -7.59375 C 22.9375 -6.21875 22.242188 -4.941406 21.265625 -3.765625 C 20.296875 -2.597656 19.0625 -1.648438 17.5625 -0.921875 C 16.070312 -0.203125 14.390625 0.15625 12.515625 0.15625 C 10.296875 0.15625 8.316406 -0.328125 6.578125 -1.296875 C 4.835938 -2.265625 3.484375 -3.613281 2.515625 -5.34375 C 1.546875 -7.070312 1.0625 -9.046875 1.0625 -11.265625 C 1.0625 -13.484375 1.546875 -15.460938 2.515625 -17.203125 C 3.484375 -18.941406 4.832031 -20.296875 6.5625 -21.265625 C 8.289062 -22.242188 10.265625 -22.734375 12.484375 -22.734375 C 15.171875 -22.734375 17.4375 -22.082031 19.28125 -20.78125 C 21.132812 -19.476562 22.359375 -17.675781 22.953125 -15.375 Z M 16.90625 -15.375 "/></g></g></g><g fill="#000000" fill-opacity="1"><g transform="translate(263.055927, 165.644541)"><g><path d="M 0.890625 -8.96875 C 0.890625 -10.800781 1.238281 -12.410156 1.9375 -13.796875 C 2.632812 -15.179688 3.578125 -16.25 4.765625 -17 C 5.960938 -17.75 7.296875 -18.125 8.765625 -18.125 C 10.023438 -18.125 11.128906 -17.863281 12.078125 -17.34375 C 13.035156 -16.832031 13.769531 -16.160156 14.28125 -15.328125 L 14.28125 -17.859375 L 19.75 -17.859375 L 19.75 0 L 14.28125 0 L 14.28125 -2.53125 C 13.75 -1.695312 13.003906 -1.023438 12.046875 -0.515625 C 11.097656 -0.00390625 9.992188 0.25 8.734375 0.25 C 7.285156 0.25 5.960938 -0.125 4.765625 -0.875 C 3.578125 -1.632812 2.632812 -2.710938 1.9375 -4.109375 C 1.238281 -5.515625 0.890625 -7.132812 0.890625 -8.96875 Z M 14.28125 -8.9375 C 14.28125 -10.300781 13.898438 -11.375 13.140625 -12.15625 C 12.378906 -12.945312 11.457031 -13.34375 10.375 -13.34375 C 9.28125 -13.34375 8.351562 -12.953125 7.59375 -12.171875 C 6.84375 -11.398438 6.46875 -10.332031 6.46875 -8.96875 C 6.46875 -7.601562 6.84375 -6.519531 7.59375 -5.71875 C 8.351562 -4.914062 9.28125 -4.515625 10.375 -4.515625 C 11.457031 -4.515625 12.378906 -4.910156 13.140625 -5.703125 C 13.898438 -6.492188 14.28125 -7.570312 14.28125 -8.9375 Z M 14.28125 -8.9375 "/></g></g></g><g fill="#000000" fill-opacity="1"><g transform="translate(284.785897, 165.644541)"><g><path d="M 7.453125 -14.890625 C 8.097656 -15.867188 8.898438 -16.640625 9.859375 -17.203125 C 10.816406 -17.773438 11.882812 -18.0625 13.0625 -18.0625 L 13.0625 -12.265625 L 11.5625 -12.265625 C 10.195312 -12.265625 9.171875 -11.96875 8.484375 -11.375 C 7.796875 -10.789062 7.453125 -9.765625 7.453125 -8.296875 L 7.453125 0 L 1.984375 0 L 1.984375 -17.859375 L 7.453125 -17.859375 Z M 7.453125 -14.890625 "/></g></g></g><g fill="#000000" fill-opacity="1"><g transform="translate(298.483135, 165.644541)"><g><path d="M 0.890625 -8.96875 C 0.890625 -10.800781 1.238281 -12.410156 1.9375 -13.796875 C 2.632812 -15.179688 3.578125 -16.25 4.765625 -17 C 5.960938 -17.75 7.296875 -18.125 8.765625 -18.125 C 10.023438 -18.125 11.128906 -17.863281 12.078125 -17.34375 C 13.035156 -16.832031 13.769531 -16.160156 14.28125 -15.328125 L 14.28125 -17.859375 L 19.75 -17.859375 L 19.75 0 L 14.28125 0 L 14.28125 -2.53125 C 13.75 -1.695312 13.003906 -1.023438 12.046875 -0.515625 C 11.097656 -0.00390625 9.992188 0.25 8.734375 0.25 C 7.285156 0.25 5.960938 -0.125 4.765625 -0.875 C 3.578125 -1.632812 2.632812 -2.710938 1.9375 -4.109375 C 1.238281 -5.515625 0.890625 -7.132812 0.890625 -8.96875 Z M 14.28125 -8.9375 C 14.28125 -10.300781 13.898438 -11.375 13.140625 -12.15625 C 12.378906 -12.945312 11.457031 -13.34375 10.375 -13.34375 C 9.28125 -13.34375 8.351562 -12.953125 7.59375 -12.171875 C 6.84375 -11.398438 6.46875 -10.332031 6.46875 -8.96875 C 6.46875 -7.601562 6.84375 -6.519531 7.59375 -5.71875 C 8.351562 -4.914062 9.28125 -4.515625 10.375 -4.515625 C 11.457031 -4.515625 12.378906 -4.910156 13.140625 -5.703125 C 13.898438 -6.492188 14.28125 -7.570312 14.28125 -8.9375 Z M 14.28125 -8.9375 "/></g></g></g><g fill="#000000" fill-opacity="1"><g transform="translate(320.213105, 165.644541)"><g><path d="M 12.875 -18.0625 C 14.957031 -18.0625 16.625 -17.378906 17.875 -16.015625 C 19.125 -14.660156 19.75 -12.800781 19.75 -10.4375 L 19.75 0 L 14.3125 0 L 14.3125 -9.703125 C 14.3125 -10.898438 14 -11.828125 13.375 -12.484375 C 12.757812 -13.148438 11.929688 -13.484375 10.890625 -13.484375 C 9.835938 -13.484375 9 -13.148438 8.375 -12.484375 C 7.757812 -11.828125 7.453125 -10.898438 7.453125 -9.703125 L 7.453125 0 L 1.984375 0 L 1.984375 -17.859375 L 7.453125 -17.859375 L 7.453125 -15.5 C 8.015625 -16.289062 8.765625 -16.914062 9.703125 -17.375 C 10.640625 -17.832031 11.695312 -18.0625 12.875 -18.0625 Z M 12.875 -18.0625 "/></g></g></g><g fill="#000000" fill-opacity="1"><g transform="translate(341.783063, 165.644541)"><g><path d="M 11.9375 -4.640625 L 11.9375 0 L 9.15625 0 C 7.164062 0 5.613281 -0.484375 4.5 -1.453125 C 3.394531 -2.421875 2.84375 -4.007812 2.84375 -6.21875 L 2.84375 -13.3125 L 0.671875 -13.3125 L 0.671875 -17.859375 L 2.84375 -17.859375 L 2.84375 -22.21875 L 8.328125 -22.21875 L 8.328125 -17.859375 L 11.90625 -17.859375 L 11.90625 -13.3125 L 8.328125 -13.3125 L 8.328125 -6.140625 C 8.328125 -5.609375 8.453125 -5.222656 8.703125 -4.984375 C 8.960938 -4.753906 9.390625 -4.640625 9.984375 -4.640625 Z M 11.9375 -4.640625 "/></g></g></g><g fill="#000000" fill-opacity="1"><g transform="translate(354.776263, 165.644541)"><g><path d="M 4.734375 -19.71875 C 3.773438 -19.71875 2.988281 -20 2.375 -20.5625 C 1.769531 -21.132812 1.46875 -21.835938 1.46875 -22.671875 C 1.46875 -23.523438 1.769531 -24.234375 2.375 -24.796875 C 2.988281 -25.359375 3.773438 -25.640625 4.734375 -25.640625 C 5.671875 -25.640625 6.441406 -25.359375 7.046875 -24.796875 C 7.660156 -24.234375 7.96875 -23.523438 7.96875 -22.671875 C 7.96875 -21.835938 7.660156 -21.132812 7.046875 -20.5625 C 6.441406 -20 5.671875 -19.71875 4.734375 -19.71875 Z M 7.453125 -17.859375 L 7.453125 0 L 1.984375 0 L 1.984375 -17.859375 Z M 7.453125 -17.859375 "/></g></g></g><g fill="#000000" fill-opacity="1"><g transform="translate(364.217101, 165.644541)"><g><path d="M 0.890625 -8.96875 C 0.890625 -10.800781 1.238281 -12.410156 1.9375 -13.796875 C 2.632812 -15.179688 3.578125 -16.25 4.765625 -17 C 5.960938 -17.75 7.296875 -18.125 8.765625 -18.125 C 10.023438 -18.125 11.128906 -17.863281 12.078125 -17.34375 C 13.035156 -16.832031 13.769531 -16.160156 14.28125 -15.328125 L 14.28125 -17.859375 L 19.75 -17.859375 L 19.75 0 L 14.28125 0 L 14.28125 -2.53125 C 13.75 -1.695312 13.003906 -1.023438 12.046875 -0.515625 C 11.097656 -0.00390625 9.992188 0.25 8.734375 0.25 C 7.285156 0.25 5.960938 -0.125 4.765625 -0.875 C 3.578125 -1.632812 2.632812 -2.710938 1.9375 -4.109375 C 1.238281 -5.515625 0.890625 -7.132812 0.890625 -8.96875 Z M 14.28125 -8.9375 C 14.28125 -10.300781 13.898438 -11.375 13.140625 -12.15625 C 12.378906 -12.945312 11.457031 -13.34375 10.375 -13.34375 C 9.28125 -13.34375 8.351562 -12.953125 7.59375 -12.171875 C 6.84375 -11.398438 6.46875 -10.332031 6.46875 -8.96875 C 6.46875 -7.601562 6.84375 -6.519531 7.59375 -5.71875 C 8.351562 -4.914062 9.28125 -4.515625 10.375 -4.515625 C 11.457031 -4.515625 12.378906 -4.910156 13.140625 -5.703125 C 13.898438 -6.492188 14.28125 -7.570312 14.28125 -8.9375 Z M 14.28125 -8.9375 "/></g></g></g><g fill="#000000" fill-opacity="1"><g transform="translate(7.676215, 198.791263)"><g><path d="M 9.15625 -12.625 L 9.15625 -11.28125 L 5.71875 -11.28125 L 5.71875 0 L 4.078125 0 L 4.078125 -11.28125 L 0.609375 -11.28125 L 0.609375 -12.625 Z M 9.15625 -12.625 "/></g></g></g><g fill="#000000" fill-opacity="1"><g transform="translate(17.472889, 198.791263)"><g><path d="M 3.046875 -8.3125 C 3.335938 -8.875 3.75 -9.3125 4.28125 -9.625 C 4.820312 -9.945312 5.476562 -10.109375 6.25 -10.109375 L 6.25 -8.40625 L 5.8125 -8.40625 C 3.96875 -8.40625 3.046875 -7.398438 3.046875 -5.390625 L 3.046875 0 L 1.390625 0 L 1.390625 -9.921875 L 3.046875 -9.921875 Z M 3.046875 -8.3125 "/></g></g></g><g fill="#000000" fill-opacity="1"><g transform="translate(24.227345, 198.791263)"><g><path d="M 5.71875 0.15625 C 4.789062 0.15625 3.945312 -0.0507812 3.1875 -0.46875 C 2.4375 -0.894531 1.847656 -1.492188 1.421875 -2.265625 C 0.992188 -3.046875 0.78125 -3.953125 0.78125 -4.984375 C 0.78125 -5.992188 1 -6.890625 1.4375 -7.671875 C 1.875 -8.453125 2.472656 -9.050781 3.234375 -9.46875 C 3.992188 -9.882812 4.847656 -10.09375 5.796875 -10.09375 C 6.734375 -10.09375 7.582031 -9.882812 8.34375 -9.46875 C 9.101562 -9.050781 9.703125 -8.453125 10.140625 -7.671875 C 10.585938 -6.898438 10.8125 -6.003906 10.8125 -4.984375 C 10.8125 -3.953125 10.582031 -3.046875 10.125 -2.265625 C 9.675781 -1.492188 9.066406 -0.894531 8.296875 -0.46875 C 7.523438 -0.0507812 6.664062 0.15625 5.71875 0.15625 Z M 5.71875 -1.28125 C 6.3125 -1.28125 6.867188 -1.421875 7.390625 -1.703125 C 7.910156 -1.984375 8.328125 -2.398438 8.640625 -2.953125 C 8.960938 -3.503906 9.125 -4.179688 9.125 -4.984375 C 9.125 -5.773438 8.96875 -6.445312 8.65625 -7 C 8.34375 -7.5625 7.929688 -7.976562 7.421875 -8.25 C 6.921875 -8.519531 6.375 -8.65625 5.78125 -8.65625 C 5.175781 -8.65625 4.625 -8.519531 4.125 -8.25 C 3.625 -7.976562 3.222656 -7.5625 2.921875 -7 C 2.617188 -6.445312 2.46875 -5.773438 2.46875 -4.984375 C 2.46875 -4.171875 2.613281 -3.484375 2.90625 -2.921875 C 3.195312 -2.367188 3.585938 -1.957031 4.078125 -1.6875 C 4.578125 -1.414062 5.125 -1.28125 5.71875 -1.28125 Z M 5.71875 -1.28125 "/></g></g></g><g fill="#000000" fill-opacity="1"><g transform="translate(35.816752, 198.791263)"><g><path d="M 0.78125 -4.984375 C 0.78125 -6.003906 0.984375 -6.894531 1.390625 -7.65625 C 1.804688 -8.425781 2.378906 -9.023438 3.109375 -9.453125 C 3.835938 -9.878906 4.671875 -10.09375 5.609375 -10.09375 C 6.828125 -10.09375 7.832031 -9.796875 8.625 -9.203125 C 9.414062 -8.609375 9.941406 -7.785156 10.203125 -6.734375 L 8.421875 -6.734375 C 8.253906 -7.335938 7.925781 -7.8125 7.4375 -8.15625 C 6.945312 -8.507812 6.335938 -8.6875 5.609375 -8.6875 C 4.671875 -8.6875 3.910156 -8.363281 3.328125 -7.71875 C 2.753906 -7.070312 2.46875 -6.160156 2.46875 -4.984375 C 2.46875 -3.785156 2.753906 -2.859375 3.328125 -2.203125 C 3.910156 -1.554688 4.671875 -1.234375 5.609375 -1.234375 C 6.335938 -1.234375 6.941406 -1.398438 7.421875 -1.734375 C 7.910156 -2.078125 8.242188 -2.5625 8.421875 -3.1875 L 10.203125 -3.1875 C 9.929688 -2.175781 9.394531 -1.363281 8.59375 -0.75 C 7.800781 -0.144531 6.804688 0.15625 5.609375 0.15625 C 4.671875 0.15625 3.835938 -0.0507812 3.109375 -0.46875 C 2.378906 -0.894531 1.804688 -1.492188 1.390625 -2.265625 C 0.984375 -3.035156 0.78125 -3.941406 0.78125 -4.984375 Z M 0.78125 -4.984375 "/></g></g></g><g fill="#000000" fill-opacity="1"><g transform="translate(46.808576, 198.791263)"><g><path d="M 0.78125 -5 C 0.78125 -6.007812 0.984375 -6.894531 1.390625 -7.65625 C 1.804688 -8.425781 2.375 -9.023438 3.09375 -9.453125 C 3.8125 -9.878906 4.609375 -10.09375 5.484375 -10.09375 C 6.359375 -10.09375 7.113281 -9.90625 7.75 -9.53125 C 8.382812 -9.15625 8.863281 -8.679688 9.1875 -8.109375 L 9.1875 -9.921875 L 10.84375 -9.921875 L 10.84375 0 L 9.1875 0 L 9.1875 -1.84375 C 8.851562 -1.269531 8.363281 -0.789062 7.71875 -0.40625 C 7.070312 -0.03125 6.320312 0.15625 5.46875 0.15625 C 4.582031 0.15625 3.785156 -0.0546875 3.078125 -0.484375 C 2.367188 -0.921875 1.804688 -1.53125 1.390625 -2.3125 C 0.984375 -3.101562 0.78125 -4 0.78125 -5 Z M 9.1875 -4.984375 C 9.1875 -5.734375 9.035156 -6.382812 8.734375 -6.9375 C 8.429688 -7.488281 8.019531 -7.910156 7.5 -8.203125 C 6.988281 -8.503906 6.425781 -8.65625 5.8125 -8.65625 C 5.195312 -8.65625 4.632812 -8.507812 4.125 -8.21875 C 3.625 -7.925781 3.222656 -7.503906 2.921875 -6.953125 C 2.617188 -6.398438 2.46875 -5.75 2.46875 -5 C 2.46875 -4.238281 2.617188 -3.578125 2.921875 -3.015625 C 3.222656 -2.453125 3.625 -2.019531 4.125 -1.71875 C 4.632812 -1.425781 5.195312 -1.28125 5.8125 -1.28125 C 6.425781 -1.28125 6.988281 -1.425781 7.5 -1.71875 C 8.019531 -2.019531 8.429688 -2.453125 8.734375 -3.015625 C 9.035156 -3.578125 9.1875 -4.234375 9.1875 -4.984375 Z M 9.1875 -4.984375 "/></g></g></g><g fill="#000000" fill-opacity="1"><g transform="translate(59.049887, 198.791263)"><g/></g></g><g fill="#000000" fill-opacity="1"><g transform="translate(63.884839, 198.791263)"><g><path d="M 10.953125 -8.96875 C 10.609375 -9.695312 10.101562 -10.265625 9.4375 -10.671875 C 8.769531 -11.078125 7.992188 -11.28125 7.109375 -11.28125 C 6.234375 -11.28125 5.441406 -11.078125 4.734375 -10.671875 C 4.023438 -10.265625 3.46875 -9.6875 3.0625 -8.9375 C 2.664062 -8.1875 2.46875 -7.3125 2.46875 -6.3125 C 2.46875 -5.320312 2.664062 -4.453125 3.0625 -3.703125 C 3.46875 -2.960938 4.023438 -2.390625 4.734375 -1.984375 C 5.441406 -1.578125 6.234375 -1.375 7.109375 -1.375 C 8.347656 -1.375 9.363281 -1.738281 10.15625 -2.46875 C 10.957031 -3.207031 11.421875 -4.207031 11.546875 -5.46875 L 6.515625 -5.46875 L 6.515625 -6.8125 L 13.3125 -6.8125 L 13.3125 -5.546875 C 13.21875 -4.503906 12.890625 -3.550781 12.328125 -2.6875 C 11.773438 -1.820312 11.046875 -1.140625 10.140625 -0.640625 C 9.234375 -0.140625 8.222656 0.109375 7.109375 0.109375 C 5.941406 0.109375 4.875 -0.164062 3.90625 -0.71875 C 2.945312 -1.269531 2.1875 -2.03125 1.625 -3 C 1.0625 -3.976562 0.78125 -5.082031 0.78125 -6.3125 C 0.78125 -7.550781 1.0625 -8.660156 1.625 -9.640625 C 2.1875 -10.628906 2.945312 -11.394531 3.90625 -11.9375 C 4.875 -12.488281 5.941406 -12.765625 7.109375 -12.765625 C 8.453125 -12.765625 9.640625 -12.429688 10.671875 -11.765625 C 11.703125 -11.109375 12.457031 -10.175781 12.9375 -8.96875 Z M 10.953125 -8.96875 "/></g></g></g><g fill="#000000" fill-opacity="1"><g transform="translate(77.97322, 198.791263)"><g><path d="M 3.046875 -8.3125 C 3.335938 -8.875 3.75 -9.3125 4.28125 -9.625 C 4.820312 -9.945312 5.476562 -10.109375 6.25 -10.109375 L 6.25 -8.40625 L 5.8125 -8.40625 C 3.96875 -8.40625 3.046875 -7.398438 3.046875 -5.390625 L 3.046875 0 L 1.390625 0 L 1.390625 -9.921875 L 3.046875 -9.921875 Z M 3.046875 -8.3125 "/></g></g></g><g fill="#000000" fill-opacity="1"><g transform="translate(84.727675, 198.791263)"><g><path d="M 0.78125 -5 C 0.78125 -6.007812 0.984375 -6.894531 1.390625 -7.65625 C 1.804688 -8.425781 2.375 -9.023438 3.09375 -9.453125 C 3.8125 -9.878906 4.609375 -10.09375 5.484375 -10.09375 C 6.359375 -10.09375 7.113281 -9.90625 7.75 -9.53125 C 8.382812 -9.15625 8.863281 -8.679688 9.1875 -8.109375 L 9.1875 -9.921875 L 10.84375 -9.921875 L 10.84375 0 L 9.1875 0 L 9.1875 -1.84375 C 8.851562 -1.269531 8.363281 -0.789062 7.71875 -0.40625 C 7.070312 -0.03125 6.320312 0.15625 5.46875 0.15625 C 4.582031 0.15625 3.785156 -0.0546875 3.078125 -0.484375 C 2.367188 -0.921875 1.804688 -1.53125 1.390625 -2.3125 C 0.984375 -3.101562 0.78125 -4 0.78125 -5 Z M 9.1875 -4.984375 C 9.1875 -5.734375 9.035156 -6.382812 8.734375 -6.9375 C 8.429688 -7.488281 8.019531 -7.910156 7.5 -8.203125 C 6.988281 -8.503906 6.425781 -8.65625 5.8125 -8.65625 C 5.195312 -8.65625 4.632812 -8.507812 4.125 -8.21875 C 3.625 -7.925781 3.222656 -7.503906 2.921875 -6.953125 C 2.617188 -6.398438 2.46875 -5.75 2.46875 -5 C 2.46875 -4.238281 2.617188 -3.578125 2.921875 -3.015625 C 3.222656 -2.453125 3.625 -2.019531 4.125 -1.71875 C 4.632812 -1.425781 5.195312 -1.28125 5.8125 -1.28125 C 6.425781 -1.28125 6.988281 -1.425781 7.5 -1.71875 C 8.019531 -2.019531 8.429688 -2.453125 8.734375 -3.015625 C 9.035156 -3.578125 9.1875 -4.234375 9.1875 -4.984375 Z M 9.1875 -4.984375 "/></g></g></g><g fill="#000000" fill-opacity="1"><g transform="translate(96.968986, 198.791263)"><g><path d="M 3.40625 -8.5625 L 3.40625 -2.71875 C 3.40625 -2.226562 3.503906 -1.882812 3.703125 -1.6875 C 3.910156 -1.488281 4.269531 -1.390625 4.78125 -1.390625 L 6 -1.390625 L 6 0 L 4.515625 0 C 3.597656 0 2.90625 -0.207031 2.4375 -0.625 C 1.976562 -1.050781 1.75 -1.75 1.75 -2.71875 L 1.75 -8.5625 L 0.46875 -8.5625 L 0.46875 -9.921875 L 1.75 -9.921875 L 1.75 -12.421875 L 3.40625 -12.421875 L 3.40625 -9.921875 L 6 -9.921875 L 6 -8.5625 Z M 3.40625 -8.5625 "/></g></g></g><g fill="#000000" fill-opacity="1"><g transform="translate(103.560462, 198.791263)"><g><path d="M 10.203125 -9.921875 L 10.203125 0 L 8.546875 0 L 8.546875 -1.46875 C 8.234375 -0.957031 7.796875 -0.5625 7.234375 -0.28125 C 6.671875 0 6.050781 0.140625 5.375 0.140625 C 4.601562 0.140625 3.910156 -0.015625 3.296875 -0.328125 C 2.679688 -0.648438 2.191406 -1.128906 1.828125 -1.765625 C 1.472656 -2.410156 1.296875 -3.191406 1.296875 -4.109375 L 1.296875 -9.921875 L 2.9375 -9.921875 L 2.9375 -4.328125 C 2.9375 -3.347656 3.179688 -2.59375 3.671875 -2.0625 C 4.171875 -1.539062 4.847656 -1.28125 5.703125 -1.28125 C 6.585938 -1.28125 7.28125 -1.550781 7.78125 -2.09375 C 8.289062 -2.644531 8.546875 -3.4375 8.546875 -4.46875 L 8.546875 -9.921875 Z M 10.203125 -9.921875 "/></g></g></g><g fill="#000000" fill-opacity="1"><g transform="translate(115.149869, 198.791263)"><g><path d="M 2.25 -11.53125 C 1.9375 -11.53125 1.671875 -11.640625 1.453125 -11.859375 C 1.234375 -12.078125 1.125 -12.34375 1.125 -12.65625 C 1.125 -12.96875 1.234375 -13.234375 1.453125 -13.453125 C 1.671875 -13.671875 1.9375 -13.78125 2.25 -13.78125 C 2.550781 -13.78125 2.804688 -13.671875 3.015625 -13.453125 C 3.222656 -13.234375 3.328125 -12.96875 3.328125 -12.65625 C 3.328125 -12.34375 3.222656 -12.078125 3.015625 -11.859375 C 2.804688 -11.640625 2.550781 -11.53125 2.25 -11.53125 Z M 3.046875 -9.921875 L 3.046875 0 L 1.390625 0 L 1.390625 -9.921875 Z M 3.046875 -9.921875 "/></g></g></g><g fill="#000000" fill-opacity="1"><g transform="translate(119.604555, 198.791263)"><g><path d="M 3.40625 -8.5625 L 3.40625 -2.71875 C 3.40625 -2.226562 3.503906 -1.882812 3.703125 -1.6875 C 3.910156 -1.488281 4.269531 -1.390625 4.78125 -1.390625 L 6 -1.390625 L 6 0 L 4.515625 0 C 3.597656 0 2.90625 -0.207031 2.4375 -0.625 C 1.976562 -1.050781 1.75 -1.75 1.75 -2.71875 L 1.75 -8.5625 L 0.46875 -8.5625 L 0.46875 -9.921875 L 1.75 -9.921875 L 1.75 -12.421875 L 3.40625 -12.421875 L 3.40625 -9.921875 L 6 -9.921875 L 6 -8.5625 Z M 3.40625 -8.5625 "/></g></g></g><g fill="#000000" fill-opacity="1"><g transform="translate(126.19603, 198.791263)"><g><path d="M 0.78125 -5 C 0.78125 -6.007812 0.984375 -6.894531 1.390625 -7.65625 C 1.804688 -8.425781 2.375 -9.023438 3.09375 -9.453125 C 3.8125 -9.878906 4.609375 -10.09375 5.484375 -10.09375 C 6.359375 -10.09375 7.113281 -9.90625 7.75 -9.53125 C 8.382812 -9.15625 8.863281 -8.679688 9.1875 -8.109375 L 9.1875 -9.921875 L 10.84375 -9.921875 L 10.84375 0 L 9.1875 0 L 9.1875 -1.84375 C 8.851562 -1.269531 8.363281 -0.789062 7.71875 -0.40625 C 7.070312 -0.03125 6.320312 0.15625 5.46875 0.15625 C 4.582031 0.15625 3.785156 -0.0546875 3.078125 -0.484375 C 2.367188 -0.921875 1.804688 -1.53125 1.390625 -2.3125 C 0.984375 -3.101562 0.78125 -4 0.78125 -5 Z M 9.1875 -4.984375 C 9.1875 -5.734375 9.035156 -6.382812 8.734375 -6.9375 C 8.429688 -7.488281 8.019531 -7.910156 7.5 -8.203125 C 6.988281 -8.503906 6.425781 -8.65625 5.8125 -8.65625 C 5.195312 -8.65625 4.632812 -8.507812 4.125 -8.21875 C 3.625 -7.925781 3.222656 -7.503906 2.921875 -6.953125 C 2.617188 -6.398438 2.46875 -5.75 2.46875 -5 C 2.46875 -4.238281 2.617188 -3.578125 2.921875 -3.015625 C 3.222656 -2.453125 3.625 -2.019531 4.125 -1.71875 C 4.632812 -1.425781 5.195312 -1.28125 5.8125 -1.28125 C 6.425781 -1.28125 6.988281 -1.425781 7.5 -1.71875 C 8.019531 -2.019531 8.429688 -2.453125 8.734375 -3.015625 C 9.035156 -3.578125 9.1875 -4.234375 9.1875 -4.984375 Z M 9.1875 -4.984375 "/></g></g></g><g fill="#000000" fill-opacity="1"><g transform="translate(138.437341, 198.791263)"><g/></g></g><g fill="#000000" fill-opacity="1"><g transform="translate(143.272293, 198.791263)"><g><path d="M 10.453125 -5.34375 C 10.453125 -5.03125 10.429688 -4.695312 10.390625 -4.34375 L 2.46875 -4.34375 C 2.519531 -3.363281 2.847656 -2.597656 3.453125 -2.046875 C 4.066406 -1.503906 4.8125 -1.234375 5.6875 -1.234375 C 6.394531 -1.234375 6.988281 -1.398438 7.46875 -1.734375 C 7.945312 -2.066406 8.28125 -2.507812 8.46875 -3.0625 L 10.25 -3.0625 C 9.976562 -2.101562 9.445312 -1.328125 8.65625 -0.734375 C 7.863281 -0.140625 6.875 0.15625 5.6875 0.15625 C 4.75 0.15625 3.90625 -0.0507812 3.15625 -0.46875 C 2.414062 -0.894531 1.832031 -1.492188 1.40625 -2.265625 C 0.988281 -3.046875 0.78125 -3.953125 0.78125 -4.984375 C 0.78125 -6.003906 0.984375 -6.898438 1.390625 -7.671875 C 1.804688 -8.453125 2.382812 -9.050781 3.125 -9.46875 C 3.863281 -9.882812 4.71875 -10.09375 5.6875 -10.09375 C 6.625 -10.09375 7.453125 -9.882812 8.171875 -9.46875 C 8.898438 -9.0625 9.460938 -8.5 9.859375 -7.78125 C 10.253906 -7.0625 10.453125 -6.25 10.453125 -5.34375 Z M 8.75 -5.6875 C 8.75 -6.3125 8.609375 -6.847656 8.328125 -7.296875 C 8.046875 -7.753906 7.664062 -8.097656 7.1875 -8.328125 C 6.71875 -8.566406 6.191406 -8.6875 5.609375 -8.6875 C 4.773438 -8.6875 4.066406 -8.421875 3.484375 -7.890625 C 2.898438 -7.359375 2.566406 -6.625 2.484375 -5.6875 Z M 8.75 -5.6875 "/></g></g></g><g fill="#000000" fill-opacity="1"><g transform="translate(154.499531, 198.791263)"><g/></g></g><g fill="#000000" fill-opacity="1"><g transform="translate(159.334483, 198.791263)"><g><path d="M 5.328125 -12.625 C 6.703125 -12.625 7.890625 -12.363281 8.890625 -11.84375 C 9.898438 -11.332031 10.675781 -10.597656 11.21875 -9.640625 C 11.757812 -8.691406 12.03125 -7.570312 12.03125 -6.28125 C 12.03125 -4.988281 11.757812 -3.867188 11.21875 -2.921875 C 10.675781 -1.972656 9.898438 -1.25 8.890625 -0.75 C 7.890625 -0.25 6.703125 0 5.328125 0 L 1.390625 0 L 1.390625 -12.625 Z M 5.328125 -1.359375 C 6.953125 -1.359375 8.191406 -1.789062 9.046875 -2.65625 C 9.910156 -3.519531 10.34375 -4.726562 10.34375 -6.28125 C 10.34375 -7.851562 9.910156 -9.078125 9.046875 -9.953125 C 8.179688 -10.835938 6.941406 -11.28125 5.328125 -11.28125 L 3.046875 -11.28125 L 3.046875 -1.359375 Z M 5.328125 -1.359375 "/></g></g></g><g fill="#000000" fill-opacity="1"><g transform="translate(172.137152, 198.791263)"><g><path d="M 10.453125 -5.34375 C 10.453125 -5.03125 10.429688 -4.695312 10.390625 -4.34375 L 2.46875 -4.34375 C 2.519531 -3.363281 2.847656 -2.597656 3.453125 -2.046875 C 4.066406 -1.503906 4.8125 -1.234375 5.6875 -1.234375 C 6.394531 -1.234375 6.988281 -1.398438 7.46875 -1.734375 C 7.945312 -2.066406 8.28125 -2.507812 8.46875 -3.0625 L 10.25 -3.0625 C 9.976562 -2.101562 9.445312 -1.328125 8.65625 -0.734375 C 7.863281 -0.140625 6.875 0.15625 5.6875 0.15625 C 4.75 0.15625 3.90625 -0.0507812 3.15625 -0.46875 C 2.414062 -0.894531 1.832031 -1.492188 1.40625 -2.265625 C 0.988281 -3.046875 0.78125 -3.953125 0.78125 -4.984375 C 0.78125 -6.003906 0.984375 -6.898438 1.390625 -7.671875 C 1.804688 -8.453125 2.382812 -9.050781 3.125 -9.46875 C 3.863281 -9.882812 4.71875 -10.09375 5.6875 -10.09375 C 6.625 -10.09375 7.453125 -9.882812 8.171875 -9.46875 C 8.898438 -9.0625 9.460938 -8.5 9.859375 -7.78125 C 10.253906 -7.0625 10.453125 -6.25 10.453125 -5.34375 Z M 8.75 -5.6875 C 8.75 -6.3125 8.609375 -6.847656 8.328125 -7.296875 C 8.046875 -7.753906 7.664062 -8.097656 7.1875 -8.328125 C 6.71875 -8.566406 6.191406 -8.6875 5.609375 -8.6875 C 4.773438 -8.6875 4.066406 -8.421875 3.484375 -7.890625 C 2.898438 -7.359375 2.566406 -6.625 2.484375 -5.6875 Z M 8.75 -5.6875 "/></g></g></g><g fill="#000000" fill-opacity="1"><g transform="translate(183.36439, 198.791263)"><g><path d="M 5.09375 -1.515625 L 8.171875 -9.921875 L 9.921875 -9.921875 L 6.03125 0 L 4.109375 0 L 0.21875 -9.921875 L 1.984375 -9.921875 Z M 5.09375 -1.515625 "/></g></g></g><g fill="#000000" fill-opacity="1"><g transform="translate(193.523234, 198.791263)"><g><path d="M 5.71875 0.15625 C 4.789062 0.15625 3.945312 -0.0507812 3.1875 -0.46875 C 2.4375 -0.894531 1.847656 -1.492188 1.421875 -2.265625 C 0.992188 -3.046875 0.78125 -3.953125 0.78125 -4.984375 C 0.78125 -5.992188 1 -6.890625 1.4375 -7.671875 C 1.875 -8.453125 2.472656 -9.050781 3.234375 -9.46875 C 3.992188 -9.882812 4.847656 -10.09375 5.796875 -10.09375 C 6.734375 -10.09375 7.582031 -9.882812 8.34375 -9.46875 C 9.101562 -9.050781 9.703125 -8.453125 10.140625 -7.671875 C 10.585938 -6.898438 10.8125 -6.003906 10.8125 -4.984375 C 10.8125 -3.953125 10.582031 -3.046875 10.125 -2.265625 C 9.675781 -1.492188 9.066406 -0.894531 8.296875 -0.46875 C 7.523438 -0.0507812 6.664062 0.15625 5.71875 0.15625 Z M 5.71875 -1.28125 C 6.3125 -1.28125 6.867188 -1.421875 7.390625 -1.703125 C 7.910156 -1.984375 8.328125 -2.398438 8.640625 -2.953125 C 8.960938 -3.503906 9.125 -4.179688 9.125 -4.984375 C 9.125 -5.773438 8.96875 -6.445312 8.65625 -7 C 8.34375 -7.5625 7.929688 -7.976562 7.421875 -8.25 C 6.921875 -8.519531 6.375 -8.65625 5.78125 -8.65625 C 5.175781 -8.65625 4.625 -8.519531 4.125 -8.25 C 3.625 -7.976562 3.222656 -7.5625 2.921875 -7 C 2.617188 -6.445312 2.46875 -5.773438 2.46875 -4.984375 C 2.46875 -4.171875 2.613281 -3.484375 2.90625 -2.921875 C 3.195312 -2.367188 3.585938 -1.957031 4.078125 -1.6875 C 4.578125 -1.414062 5.125 -1.28125 5.71875 -1.28125 Z M 5.71875 -1.28125 "/></g></g></g><g fill="#000000" fill-opacity="1"><g transform="translate(205.112641, 198.791263)"><g><path d="M 3.046875 -13.40625 L 3.046875 0 L 1.390625 0 L 1.390625 -13.40625 Z M 3.046875 -13.40625 "/></g></g></g><g fill="#000000" fill-opacity="1"><g transform="translate(209.567327, 198.791263)"><g><path d="M 10.203125 -9.921875 L 10.203125 0 L 8.546875 0 L 8.546875 -1.46875 C 8.234375 -0.957031 7.796875 -0.5625 7.234375 -0.28125 C 6.671875 0 6.050781 0.140625 5.375 0.140625 C 4.601562 0.140625 3.910156 -0.015625 3.296875 -0.328125 C 2.679688 -0.648438 2.191406 -1.128906 1.828125 -1.765625 C 1.472656 -2.410156 1.296875 -3.191406 1.296875 -4.109375 L 1.296875 -9.921875 L 2.9375 -9.921875 L 2.9375 -4.328125 C 2.9375 -3.347656 3.179688 -2.59375 3.671875 -2.0625 C 4.171875 -1.539062 4.847656 -1.28125 5.703125 -1.28125 C 6.585938 -1.28125 7.28125 -1.550781 7.78125 -2.09375 C 8.289062 -2.644531 8.546875 -3.4375 8.546875 -4.46875 L 8.546875 -9.921875 Z M 10.203125 -9.921875 "/></g></g></g><g fill="#000000" fill-opacity="1"><g transform="translate(221.156734, 198.791263)"><g><path d="M 5.609375 -1.234375 C 6.335938 -1.234375 6.941406 -1.398438 7.421875 -1.734375 C 7.910156 -2.078125 8.242188 -2.5625 8.421875 -3.1875 L 10.203125 -3.1875 C 9.953125 -2.25 9.472656 -1.476562 8.765625 -0.875 C 8.066406 -0.28125 7.1875 0.0546875 6.125 0.140625 L 6.125 1.046875 C 6.832031 1.035156 7.394531 1.1875 7.8125 1.5 C 8.238281 1.8125 8.453125 2.257812 8.453125 2.84375 C 8.453125 3.40625 8.242188 3.851562 7.828125 4.1875 C 7.421875 4.53125 6.894531 4.703125 6.25 4.703125 L 4.171875 4.703125 L 4.171875 3.640625 L 5.921875 3.640625 C 6.316406 3.640625 6.609375 3.578125 6.796875 3.453125 C 6.984375 3.335938 7.078125 3.132812 7.078125 2.84375 C 7.078125 2.5625 6.984375 2.359375 6.796875 2.234375 C 6.609375 2.117188 6.316406 2.0625 5.921875 2.0625 L 5.015625 2.0625 L 5.015625 0.125 C 4.179688 0.0390625 3.441406 -0.21875 2.796875 -0.65625 C 2.160156 -1.101562 1.664062 -1.695312 1.3125 -2.4375 C 0.957031 -3.175781 0.78125 -4.023438 0.78125 -4.984375 C 0.78125 -6.003906 0.984375 -6.894531 1.390625 -7.65625 C 1.804688 -8.425781 2.378906 -9.023438 3.109375 -9.453125 C 3.835938 -9.878906 4.671875 -10.09375 5.609375 -10.09375 C 6.828125 -10.09375 7.832031 -9.796875 8.625 -9.203125 C 9.414062 -8.609375 9.941406 -7.785156 10.203125 -6.734375 L 8.421875 -6.734375 C 8.253906 -7.335938 7.925781 -7.8125 7.4375 -8.15625 C 6.945312 -8.507812 6.335938 -8.6875 5.609375 -8.6875 C 4.671875 -8.6875 3.910156 -8.363281 3.328125 -7.71875 C 2.753906 -7.070312 2.46875 -6.160156 2.46875 -4.984375 C 2.46875 -3.785156 2.753906 -2.859375 3.328125 -2.203125 C 3.910156 -1.554688 4.671875 -1.234375 5.609375 -1.234375 Z M 5.609375 -1.234375 "/></g></g></g><g fill="#000000" fill-opacity="1"><g transform="translate(232.148559, 198.791263)"><g><path d="M 5.71875 0.15625 C 4.789062 0.15625 3.945312 -0.0507812 3.1875 -0.46875 C 2.4375 -0.894531 1.847656 -1.492188 1.421875 -2.265625 C 0.992188 -3.046875 0.78125 -3.953125 0.78125 -4.984375 C 0.78125 -5.992188 1 -6.890625 1.4375 -7.671875 C 1.875 -8.453125 2.472656 -9.050781 3.234375 -9.46875 C 3.992188 -9.882812 4.847656 -10.09375 5.796875 -10.09375 C 6.734375 -10.09375 7.582031 -9.882812 8.34375 -9.46875 C 9.101562 -9.050781 9.703125 -8.453125 10.140625 -7.671875 C 10.585938 -6.898438 10.8125 -6.003906 10.8125 -4.984375 C 10.8125 -3.953125 10.582031 -3.046875 10.125 -2.265625 C 9.675781 -1.492188 9.066406 -0.894531 8.296875 -0.46875 C 7.523438 -0.0507812 6.664062 0.15625 5.71875 0.15625 Z M 5.71875 -1.28125 C 6.3125 -1.28125 6.867188 -1.421875 7.390625 -1.703125 C 7.910156 -1.984375 8.328125 -2.398438 8.640625 -2.953125 C 8.960938 -3.503906 9.125 -4.179688 9.125 -4.984375 C 9.125 -5.773438 8.96875 -6.445312 8.65625 -7 C 8.34375 -7.5625 7.929688 -7.976562 7.421875 -8.25 C 6.921875 -8.519531 6.375 -8.65625 5.78125 -8.65625 C 5.175781 -8.65625 4.625 -8.519531 4.125 -8.25 C 3.625 -7.976562 3.222656 -7.5625 2.921875 -7 C 2.617188 -6.445312 2.46875 -5.773438 2.46875 -4.984375 C 2.46875 -4.171875 2.613281 -3.484375 2.90625 -2.921875 C 3.195312 -2.367188 3.585938 -1.957031 4.078125 -1.6875 C 4.578125 -1.414062 5.125 -1.28125 5.71875 -1.28125 Z M 3.15625 -11.125 C 3.238281 -11.738281 3.4375 -12.207031 3.75 -12.53125 C 4.070312 -12.851562 4.476562 -13.015625 4.96875 -13.015625 C 5.195312 -13.015625 5.390625 -12.972656 5.546875 -12.890625 C 5.710938 -12.816406 5.910156 -12.707031 6.140625 -12.5625 C 6.304688 -12.445312 6.457031 -12.351562 6.59375 -12.28125 C 6.726562 -12.21875 6.875 -12.1875 7.03125 -12.1875 C 7.226562 -12.1875 7.398438 -12.25 7.546875 -12.375 C 7.691406 -12.507812 7.785156 -12.707031 7.828125 -12.96875 L 8.765625 -12.96875 C 8.691406 -12.363281 8.488281 -11.894531 8.15625 -11.5625 C 7.832031 -11.238281 7.429688 -11.078125 6.953125 -11.078125 C 6.722656 -11.078125 6.519531 -11.113281 6.34375 -11.1875 C 6.164062 -11.269531 5.972656 -11.390625 5.765625 -11.546875 C 5.566406 -11.671875 5.410156 -11.765625 5.296875 -11.828125 C 5.179688 -11.890625 5.046875 -11.921875 4.890625 -11.921875 C 4.679688 -11.921875 4.507812 -11.851562 4.375 -11.71875 C 4.238281 -11.582031 4.148438 -11.382812 4.109375 -11.125 Z M 3.15625 -11.125 "/></g></g></g><g fill="#000000" fill-opacity="1"><g transform="translate(243.737966, 198.791263)"><g><path d="M 10.453125 -5.34375 C 10.453125 -5.03125 10.429688 -4.695312 10.390625 -4.34375 L 2.46875 -4.34375 C 2.519531 -3.363281 2.847656 -2.597656 3.453125 -2.046875 C 4.066406 -1.503906 4.8125 -1.234375 5.6875 -1.234375 C 6.394531 -1.234375 6.988281 -1.398438 7.46875 -1.734375 C 7.945312 -2.066406 8.28125 -2.507812 8.46875 -3.0625 L 10.25 -3.0625 C 9.976562 -2.101562 9.445312 -1.328125 8.65625 -0.734375 C 7.863281 -0.140625 6.875 0.15625 5.6875 0.15625 C 4.75 0.15625 3.90625 -0.0507812 3.15625 -0.46875 C 2.414062 -0.894531 1.832031 -1.492188 1.40625 -2.265625 C 0.988281 -3.046875 0.78125 -3.953125 0.78125 -4.984375 C 0.78125 -6.003906 0.984375 -6.898438 1.390625 -7.671875 C 1.804688 -8.453125 2.382812 -9.050781 3.125 -9.46875 C 3.863281 -9.882812 4.71875 -10.09375 5.6875 -10.09375 C 6.625 -10.09375 7.453125 -9.882812 8.171875 -9.46875 C 8.898438 -9.0625 9.460938 -8.5 9.859375 -7.78125 C 10.253906 -7.0625 10.453125 -6.25 10.453125 -5.34375 Z M 8.75 -5.6875 C 8.75 -6.3125 8.609375 -6.847656 8.328125 -7.296875 C 8.046875 -7.753906 7.664062 -8.097656 7.1875 -8.328125 C 6.71875 -8.566406 6.191406 -8.6875 5.609375 -8.6875 C 4.773438 -8.6875 4.066406 -8.421875 3.484375 -7.890625 C 2.898438 -7.359375 2.566406 -6.625 2.484375 -5.6875 Z M 8.75 -5.6875 "/></g></g></g><g fill="#000000" fill-opacity="1"><g transform="translate(254.965204, 198.791263)"><g><path d="M 4.90625 0.15625 C 4.144531 0.15625 3.460938 0.03125 2.859375 -0.21875 C 2.253906 -0.476562 1.773438 -0.84375 1.421875 -1.3125 C 1.078125 -1.78125 0.882812 -2.316406 0.84375 -2.921875 L 2.546875 -2.921875 C 2.597656 -2.421875 2.832031 -2.015625 3.25 -1.703125 C 3.664062 -1.390625 4.210938 -1.234375 4.890625 -1.234375 C 5.515625 -1.234375 6.007812 -1.367188 6.375 -1.640625 C 6.738281 -1.921875 6.921875 -2.273438 6.921875 -2.703125 C 6.921875 -3.128906 6.726562 -3.445312 6.34375 -3.65625 C 5.957031 -3.875 5.359375 -4.085938 4.546875 -4.296875 C 3.804688 -4.484375 3.203125 -4.675781 2.734375 -4.875 C 2.273438 -5.070312 1.878906 -5.367188 1.546875 -5.765625 C 1.210938 -6.160156 1.046875 -6.675781 1.046875 -7.3125 C 1.046875 -7.820312 1.195312 -8.285156 1.5 -8.703125 C 1.800781 -9.128906 2.226562 -9.46875 2.78125 -9.71875 C 3.34375 -9.96875 3.976562 -10.09375 4.6875 -10.09375 C 5.789062 -10.09375 6.675781 -9.8125 7.34375 -9.25 C 8.019531 -8.695312 8.382812 -7.9375 8.4375 -6.96875 L 6.796875 -6.96875 C 6.753906 -7.488281 6.539062 -7.90625 6.15625 -8.21875 C 5.78125 -8.53125 5.273438 -8.6875 4.640625 -8.6875 C 4.046875 -8.6875 3.570312 -8.5625 3.21875 -8.3125 C 2.875 -8.0625 2.703125 -7.726562 2.703125 -7.3125 C 2.703125 -6.988281 2.804688 -6.71875 3.015625 -6.5 C 3.222656 -6.289062 3.488281 -6.125 3.8125 -6 C 4.132812 -5.875 4.578125 -5.734375 5.140625 -5.578125 C 5.859375 -5.378906 6.4375 -5.1875 6.875 -5 C 7.320312 -4.8125 7.707031 -4.53125 8.03125 -4.15625 C 8.351562 -3.789062 8.519531 -3.304688 8.53125 -2.703125 C 8.53125 -2.160156 8.378906 -1.671875 8.078125 -1.234375 C 7.773438 -0.796875 7.347656 -0.453125 6.796875 -0.203125 C 6.242188 0.0351562 5.613281 0.15625 4.90625 0.15625 Z M 4.90625 0.15625 "/></g></g></g><g fill="#000000" fill-opacity="1"><g transform="translate(264.417806, 198.791263)"><g/></g></g><g fill="#000000" fill-opacity="1"><g transform="translate(269.252743, 198.791263)"><g><path d="M 4.90625 0.15625 C 4.144531 0.15625 3.460938 0.03125 2.859375 -0.21875 C 2.253906 -0.476562 1.773438 -0.84375 1.421875 -1.3125 C 1.078125 -1.78125 0.882812 -2.316406 0.84375 -2.921875 L 2.546875 -2.921875 C 2.597656 -2.421875 2.832031 -2.015625 3.25 -1.703125 C 3.664062 -1.390625 4.210938 -1.234375 4.890625 -1.234375 C 5.515625 -1.234375 6.007812 -1.367188 6.375 -1.640625 C 6.738281 -1.921875 6.921875 -2.273438 6.921875 -2.703125 C 6.921875 -3.128906 6.726562 -3.445312 6.34375 -3.65625 C 5.957031 -3.875 5.359375 -4.085938 4.546875 -4.296875 C 3.804688 -4.484375 3.203125 -4.675781 2.734375 -4.875 C 2.273438 -5.070312 1.878906 -5.367188 1.546875 -5.765625 C 1.210938 -6.160156 1.046875 -6.675781 1.046875 -7.3125 C 1.046875 -7.820312 1.195312 -8.285156 1.5 -8.703125 C 1.800781 -9.128906 2.226562 -9.46875 2.78125 -9.71875 C 3.34375 -9.96875 3.976562 -10.09375 4.6875 -10.09375 C 5.789062 -10.09375 6.675781 -9.8125 7.34375 -9.25 C 8.019531 -8.695312 8.382812 -7.9375 8.4375 -6.96875 L 6.796875 -6.96875 C 6.753906 -7.488281 6.539062 -7.90625 6.15625 -8.21875 C 5.78125 -8.53125 5.273438 -8.6875 4.640625 -8.6875 C 4.046875 -8.6875 3.570312 -8.5625 3.21875 -8.3125 C 2.875 -8.0625 2.703125 -7.726562 2.703125 -7.3125 C 2.703125 -6.988281 2.804688 -6.71875 3.015625 -6.5 C 3.222656 -6.289062 3.488281 -6.125 3.8125 -6 C 4.132812 -5.875 4.578125 -5.734375 5.140625 -5.578125 C 5.859375 -5.378906 6.4375 -5.1875 6.875 -5 C 7.320312 -4.8125 7.707031 -4.53125 8.03125 -4.15625 C 8.351562 -3.789062 8.519531 -3.304688 8.53125 -2.703125 C 8.53125 -2.160156 8.378906 -1.671875 8.078125 -1.234375 C 7.773438 -0.796875 7.347656 -0.453125 6.796875 -0.203125 C 6.242188 0.0351562 5.613281 0.15625 4.90625 0.15625 Z M 4.90625 0.15625 "/></g></g></g><g fill="#000000" fill-opacity="1"><g transform="translate(278.705361, 198.791263)"><g><path d="M 10.453125 -5.34375 C 10.453125 -5.03125 10.429688 -4.695312 10.390625 -4.34375 L 2.46875 -4.34375 C 2.519531 -3.363281 2.847656 -2.597656 3.453125 -2.046875 C 4.066406 -1.503906 4.8125 -1.234375 5.6875 -1.234375 C 6.394531 -1.234375 6.988281 -1.398438 7.46875 -1.734375 C 7.945312 -2.066406 8.28125 -2.507812 8.46875 -3.0625 L 10.25 -3.0625 C 9.976562 -2.101562 9.445312 -1.328125 8.65625 -0.734375 C 7.863281 -0.140625 6.875 0.15625 5.6875 0.15625 C 4.75 0.15625 3.90625 -0.0507812 3.15625 -0.46875 C 2.414062 -0.894531 1.832031 -1.492188 1.40625 -2.265625 C 0.988281 -3.046875 0.78125 -3.953125 0.78125 -4.984375 C 0.78125 -6.003906 0.984375 -6.898438 1.390625 -7.671875 C 1.804688 -8.453125 2.382812 -9.050781 3.125 -9.46875 C 3.863281 -9.882812 4.71875 -10.09375 5.6875 -10.09375 C 6.625 -10.09375 7.453125 -9.882812 8.171875 -9.46875 C 8.898438 -9.0625 9.460938 -8.5 9.859375 -7.78125 C 10.253906 -7.0625 10.453125 -6.25 10.453125 -5.34375 Z M 8.75 -5.6875 C 8.75 -6.3125 8.609375 -6.847656 8.328125 -7.296875 C 8.046875 -7.753906 7.664062 -8.097656 7.1875 -8.328125 C 6.71875 -8.566406 6.191406 -8.6875 5.609375 -8.6875 C 4.773438 -8.6875 4.066406 -8.421875 3.484375 -7.890625 C 2.898438 -7.359375 2.566406 -6.625 2.484375 -5.6875 Z M 8.75 -5.6875 "/></g></g></g><g fill="#000000" fill-opacity="1"><g transform="translate(289.932614, 198.791263)"><g><path d="M 13.328125 -10.109375 C 14.097656 -10.109375 14.785156 -9.945312 15.390625 -9.625 C 15.992188 -9.300781 16.46875 -8.816406 16.8125 -8.171875 C 17.164062 -7.535156 17.34375 -6.757812 17.34375 -5.84375 L 17.34375 0 L 15.71875 0 L 15.71875 -5.609375 C 15.71875 -6.597656 15.472656 -7.351562 14.984375 -7.875 C 14.492188 -8.40625 13.832031 -8.671875 13 -8.671875 C 12.144531 -8.671875 11.460938 -8.394531 10.953125 -7.84375 C 10.453125 -7.300781 10.203125 -6.507812 10.203125 -5.46875 L 10.203125 0 L 8.5625 0 L 8.5625 -5.609375 C 8.5625 -6.597656 8.316406 -7.351562 7.828125 -7.875 C 7.335938 -8.40625 6.675781 -8.671875 5.84375 -8.671875 C 4.988281 -8.671875 4.304688 -8.394531 3.796875 -7.84375 C 3.296875 -7.300781 3.046875 -6.507812 3.046875 -5.46875 L 3.046875 0 L 1.390625 0 L 1.390625 -9.921875 L 3.046875 -9.921875 L 3.046875 -8.5 C 3.367188 -9.007812 3.800781 -9.40625 4.34375 -9.6875 C 4.894531 -9.96875 5.503906 -10.109375 6.171875 -10.109375 C 7.003906 -10.109375 7.738281 -9.921875 8.375 -9.546875 C 9.019531 -9.171875 9.5 -8.617188 9.8125 -7.890625 C 10.09375 -8.597656 10.550781 -9.144531 11.1875 -9.53125 C 11.832031 -9.914062 12.546875 -10.109375 13.328125 -10.109375 Z M 13.328125 -10.109375 "/></g></g></g><g fill="#000000" fill-opacity="1"><g transform="translate(308.584339, 198.791263)"><g/></g></g><g fill="#000000" fill-opacity="1"><g transform="translate(313.419276, 198.791263)"><g><path d="M 0.78125 -4.984375 C 0.78125 -6.003906 0.984375 -6.894531 1.390625 -7.65625 C 1.804688 -8.425781 2.378906 -9.023438 3.109375 -9.453125 C 3.835938 -9.878906 4.671875 -10.09375 5.609375 -10.09375 C 6.828125 -10.09375 7.832031 -9.796875 8.625 -9.203125 C 9.414062 -8.609375 9.941406 -7.785156 10.203125 -6.734375 L 8.421875 -6.734375 C 8.253906 -7.335938 7.925781 -7.8125 7.4375 -8.15625 C 6.945312 -8.507812 6.335938 -8.6875 5.609375 -8.6875 C 4.671875 -8.6875 3.910156 -8.363281 3.328125 -7.71875 C 2.753906 -7.070312 2.46875 -6.160156 2.46875 -4.984375 C 2.46875 -3.785156 2.753906 -2.859375 3.328125 -2.203125 C 3.910156 -1.554688 4.671875 -1.234375 5.609375 -1.234375 C 6.335938 -1.234375 6.941406 -1.398438 7.421875 -1.734375 C 7.910156 -2.078125 8.242188 -2.5625 8.421875 -3.1875 L 10.203125 -3.1875 C 9.929688 -2.175781 9.394531 -1.363281 8.59375 -0.75 C 7.800781 -0.144531 6.804688 0.15625 5.609375 0.15625 C 4.671875 0.15625 3.835938 -0.0507812 3.109375 -0.46875 C 2.378906 -0.894531 1.804688 -1.492188 1.390625 -2.265625 C 0.984375 -3.035156 0.78125 -3.941406 0.78125 -4.984375 Z M 0.78125 -4.984375 "/></g></g></g><g fill="#000000" fill-opacity="1"><g transform="translate(324.4111, 198.791263)"><g><path d="M 5.71875 0.15625 C 4.789062 0.15625 3.945312 -0.0507812 3.1875 -0.46875 C 2.4375 -0.894531 1.847656 -1.492188 1.421875 -2.265625 C 0.992188 -3.046875 0.78125 -3.953125 0.78125 -4.984375 C 0.78125 -5.992188 1 -6.890625 1.4375 -7.671875 C 1.875 -8.453125 2.472656 -9.050781 3.234375 -9.46875 C 3.992188 -9.882812 4.847656 -10.09375 5.796875 -10.09375 C 6.734375 -10.09375 7.582031 -9.882812 8.34375 -9.46875 C 9.101562 -9.050781 9.703125 -8.453125 10.140625 -7.671875 C 10.585938 -6.898438 10.8125 -6.003906 10.8125 -4.984375 C 10.8125 -3.953125 10.582031 -3.046875 10.125 -2.265625 C 9.675781 -1.492188 9.066406 -0.894531 8.296875 -0.46875 C 7.523438 -0.0507812 6.664062 0.15625 5.71875 0.15625 Z M 5.71875 -1.28125 C 6.3125 -1.28125 6.867188 -1.421875 7.390625 -1.703125 C 7.910156 -1.984375 8.328125 -2.398438 8.640625 -2.953125 C 8.960938 -3.503906 9.125 -4.179688 9.125 -4.984375 C 9.125 -5.773438 8.96875 -6.445312 8.65625 -7 C 8.34375 -7.5625 7.929688 -7.976562 7.421875 -8.25 C 6.921875 -8.519531 6.375 -8.65625 5.78125 -8.65625 C 5.175781 -8.65625 4.625 -8.519531 4.125 -8.25 C 3.625 -7.976562 3.222656 -7.5625 2.921875 -7 C 2.617188 -6.445312 2.46875 -5.773438 2.46875 -4.984375 C 2.46875 -4.171875 2.613281 -3.484375 2.90625 -2.921875 C 3.195312 -2.367188 3.585938 -1.957031 4.078125 -1.6875 C 4.578125 -1.414062 5.125 -1.28125 5.71875 -1.28125 Z M 5.71875 -1.28125 "/></g></g></g><g fill="#000000" fill-opacity="1"><g transform="translate(336.000507, 198.791263)"><g><path d="M 13.328125 -10.109375 C 14.097656 -10.109375 14.785156 -9.945312 15.390625 -9.625 C 15.992188 -9.300781 16.46875 -8.816406 16.8125 -8.171875 C 17.164062 -7.535156 17.34375 -6.757812 17.34375 -5.84375 L 17.34375 0 L 15.71875 0 L 15.71875 -5.609375 C 15.71875 -6.597656 15.472656 -7.351562 14.984375 -7.875 C 14.492188 -8.40625 13.832031 -8.671875 13 -8.671875 C 12.144531 -8.671875 11.460938 -8.394531 10.953125 -7.84375 C 10.453125 -7.300781 10.203125 -6.507812 10.203125 -5.46875 L 10.203125 0 L 8.5625 0 L 8.5625 -5.609375 C 8.5625 -6.597656 8.316406 -7.351562 7.828125 -7.875 C 7.335938 -8.40625 6.675781 -8.671875 5.84375 -8.671875 C 4.988281 -8.671875 4.304688 -8.394531 3.796875 -7.84375 C 3.296875 -7.300781 3.046875 -6.507812 3.046875 -5.46875 L 3.046875 0 L 1.390625 0 L 1.390625 -9.921875 L 3.046875 -9.921875 L 3.046875 -8.5 C 3.367188 -9.007812 3.800781 -9.40625 4.34375 -9.6875 C 4.894531 -9.96875 5.503906 -10.109375 6.171875 -10.109375 C 7.003906 -10.109375 7.738281 -9.921875 8.375 -9.546875 C 9.019531 -9.171875 9.5 -8.617188 9.8125 -7.890625 C 10.09375 -8.597656 10.550781 -9.144531 11.1875 -9.53125 C 11.832031 -9.914062 12.546875 -10.109375 13.328125 -10.109375 Z M 13.328125 -10.109375 "/></g></g></g><g fill="#000000" fill-opacity="1"><g transform="translate(354.652232, 198.791263)"><g><path d="M 3.046875 -8.09375 C 3.367188 -8.664062 3.851562 -9.140625 4.5 -9.515625 C 5.144531 -9.898438 5.894531 -10.09375 6.75 -10.09375 C 7.632812 -10.09375 8.4375 -9.878906 9.15625 -9.453125 C 9.875 -9.023438 10.4375 -8.425781 10.84375 -7.65625 C 11.257812 -6.894531 11.46875 -6.007812 11.46875 -5 C 11.46875 -4 11.257812 -3.101562 10.84375 -2.3125 C 10.4375 -1.53125 9.875 -0.921875 9.15625 -0.484375 C 8.4375 -0.0546875 7.632812 0.15625 6.75 0.15625 C 5.90625 0.15625 5.160156 -0.03125 4.515625 -0.40625 C 3.867188 -0.789062 3.378906 -1.265625 3.046875 -1.828125 L 3.046875 4.703125 L 1.390625 4.703125 L 1.390625 -9.921875 L 3.046875 -9.921875 Z M 9.78125 -5 C 9.78125 -5.75 9.628906 -6.398438 9.328125 -6.953125 C 9.023438 -7.503906 8.613281 -7.925781 8.09375 -8.21875 C 7.582031 -8.507812 7.019531 -8.65625 6.40625 -8.65625 C 5.800781 -8.65625 5.242188 -8.503906 4.734375 -8.203125 C 4.222656 -7.910156 3.8125 -7.484375 3.5 -6.921875 C 3.195312 -6.359375 3.046875 -5.710938 3.046875 -4.984375 C 3.046875 -4.234375 3.195312 -3.578125 3.5 -3.015625 C 3.8125 -2.453125 4.222656 -2.019531 4.734375 -1.71875 C 5.242188 -1.425781 5.800781 -1.28125 6.40625 -1.28125 C 7.019531 -1.28125 7.582031 -1.425781 8.09375 -1.71875 C 8.613281 -2.019531 9.023438 -2.453125 9.328125 -3.015625 C 9.628906 -3.578125 9.78125 -4.238281 9.78125 -5 Z M 9.78125 -5 "/></g></g></g><g fill="#000000" fill-opacity="1"><g transform="translate(366.893558, 198.791263)"><g><path d="M 3.046875 -13.40625 L 3.046875 0 L 1.390625 0 L 1.390625 -13.40625 Z M 3.046875 -13.40625 "/></g></g></g><g fill="#000000" fill-opacity="1"><g transform="translate(371.34826, 198.791263)"><g><path d="M 2.25 -11.53125 C 1.9375 -11.53125 1.671875 -11.640625 1.453125 -11.859375 C 1.234375 -12.078125 1.125 -12.34375 1.125 -12.65625 C 1.125 -12.96875 1.234375 -13.234375 1.453125 -13.453125 C 1.671875 -13.671875 1.9375 -13.78125 2.25 -13.78125 C 2.550781 -13.78125 2.804688 -13.671875 3.015625 -13.453125 C 3.222656 -13.234375 3.328125 -12.96875 3.328125 -12.65625 C 3.328125 -12.34375 3.222656 -12.078125 3.015625 -11.859375 C 2.804688 -11.640625 2.550781 -11.53125 2.25 -11.53125 Z M 3.046875 -9.921875 L 3.046875 0 L 1.390625 0 L 1.390625 -9.921875 Z M 3.046875 -9.921875 "/></g></g></g><g fill="#000000" fill-opacity="1"><g transform="translate(375.802961, 198.791263)"><g><path d="M 0.78125 -4.984375 C 0.78125 -6.003906 0.984375 -6.894531 1.390625 -7.65625 C 1.804688 -8.425781 2.378906 -9.023438 3.109375 -9.453125 C 3.835938 -9.878906 4.671875 -10.09375 5.609375 -10.09375 C 6.828125 -10.09375 7.832031 -9.796875 8.625 -9.203125 C 9.414062 -8.609375 9.941406 -7.785156 10.203125 -6.734375 L 8.421875 -6.734375 C 8.253906 -7.335938 7.925781 -7.8125 7.4375 -8.15625 C 6.945312 -8.507812 6.335938 -8.6875 5.609375 -8.6875 C 4.671875 -8.6875 3.910156 -8.363281 3.328125 -7.71875 C 2.753906 -7.070312 2.46875 -6.160156 2.46875 -4.984375 C 2.46875 -3.785156 2.753906 -2.859375 3.328125 -2.203125 C 3.910156 -1.554688 4.671875 -1.234375 5.609375 -1.234375 C 6.335938 -1.234375 6.941406 -1.398438 7.421875 -1.734375 C 7.910156 -2.078125 8.242188 -2.5625 8.421875 -3.1875 L 10.203125 -3.1875 C 9.929688 -2.175781 9.394531 -1.363281 8.59375 -0.75 C 7.800781 -0.144531 6.804688 0.15625 5.609375 0.15625 C 4.671875 0.15625 3.835938 -0.0507812 3.109375 -0.46875 C 2.378906 -0.894531 1.804688 -1.492188 1.390625 -2.265625 C 0.984375 -3.035156 0.78125 -3.941406 0.78125 -4.984375 Z M 0.78125 -4.984375 "/></g></g></g><g fill="#000000" fill-opacity="1"><g transform="translate(386.794785, 198.791263)"><g><path d="M 0.78125 -5 C 0.78125 -6.007812 0.984375 -6.894531 1.390625 -7.65625 C 1.804688 -8.425781 2.375 -9.023438 3.09375 -9.453125 C 3.8125 -9.878906 4.609375 -10.09375 5.484375 -10.09375 C 6.359375 -10.09375 7.113281 -9.90625 7.75 -9.53125 C 8.382812 -9.15625 8.863281 -8.679688 9.1875 -8.109375 L 9.1875 -9.921875 L 10.84375 -9.921875 L 10.84375 0 L 9.1875 0 L 9.1875 -1.84375 C 8.851562 -1.269531 8.363281 -0.789062 7.71875 -0.40625 C 7.070312 -0.03125 6.320312 0.15625 5.46875 0.15625 C 4.582031 0.15625 3.785156 -0.0546875 3.078125 -0.484375 C 2.367188 -0.921875 1.804688 -1.53125 1.390625 -2.3125 C 0.984375 -3.101562 0.78125 -4 0.78125 -5 Z M 9.1875 -4.984375 C 9.1875 -5.734375 9.035156 -6.382812 8.734375 -6.9375 C 8.429688 -7.488281 8.019531 -7.910156 7.5 -8.203125 C 6.988281 -8.503906 6.425781 -8.65625 5.8125 -8.65625 C 5.195312 -8.65625 4.632812 -8.507812 4.125 -8.21875 C 3.625 -7.925781 3.222656 -7.503906 2.921875 -6.953125 C 2.617188 -6.398438 2.46875 -5.75 2.46875 -5 C 2.46875 -4.238281 2.617188 -3.578125 2.921875 -3.015625 C 3.222656 -2.453125 3.625 -2.019531 4.125 -1.71875 C 4.632812 -1.425781 5.195312 -1.28125 5.8125 -1.28125 C 6.425781 -1.28125 6.988281 -1.425781 7.5 -1.71875 C 8.019531 -2.019531 8.429688 -2.453125 8.734375 -3.015625 C 9.035156 -3.578125 9.1875 -4.234375 9.1875 -4.984375 Z M 9.1875 -4.984375 "/></g></g></g><g fill="#000000" fill-opacity="1"><g transform="translate(399.036112, 198.791263)"><g><path d="M 5.609375 -1.234375 C 6.335938 -1.234375 6.941406 -1.398438 7.421875 -1.734375 C 7.910156 -2.078125 8.242188 -2.5625 8.421875 -3.1875 L 10.203125 -3.1875 C 9.953125 -2.25 9.472656 -1.476562 8.765625 -0.875 C 8.066406 -0.28125 7.1875 0.0546875 6.125 0.140625 L 6.125 1.046875 C 6.832031 1.035156 7.394531 1.1875 7.8125 1.5 C 8.238281 1.8125 8.453125 2.257812 8.453125 2.84375 C 8.453125 3.40625 8.242188 3.851562 7.828125 4.1875 C 7.421875 4.53125 6.894531 4.703125 6.25 4.703125 L 4.171875 4.703125 L 4.171875 3.640625 L 5.921875 3.640625 C 6.316406 3.640625 6.609375 3.578125 6.796875 3.453125 C 6.984375 3.335938 7.078125 3.132812 7.078125 2.84375 C 7.078125 2.5625 6.984375 2.359375 6.796875 2.234375 C 6.609375 2.117188 6.316406 2.0625 5.921875 2.0625 L 5.015625 2.0625 L 5.015625 0.125 C 4.179688 0.0390625 3.441406 -0.21875 2.796875 -0.65625 C 2.160156 -1.101562 1.664062 -1.695312 1.3125 -2.4375 C 0.957031 -3.175781 0.78125 -4.023438 0.78125 -4.984375 C 0.78125 -6.003906 0.984375 -6.894531 1.390625 -7.65625 C 1.804688 -8.425781 2.378906 -9.023438 3.109375 -9.453125 C 3.835938 -9.878906 4.671875 -10.09375 5.609375 -10.09375 C 6.828125 -10.09375 7.832031 -9.796875 8.625 -9.203125 C 9.414062 -8.609375 9.941406 -7.785156 10.203125 -6.734375 L 8.421875 -6.734375 C 8.253906 -7.335938 7.925781 -7.8125 7.4375 -8.15625 C 6.945312 -8.507812 6.335938 -8.6875 5.609375 -8.6875 C 4.671875 -8.6875 3.910156 -8.363281 3.328125 -7.71875 C 2.753906 -7.070312 2.46875 -6.160156 2.46875 -4.984375 C 2.46875 -3.785156 2.753906 -2.859375 3.328125 -2.203125 C 3.910156 -1.554688 4.671875 -1.234375 5.609375 -1.234375 Z M 5.609375 -1.234375 "/></g></g></g><g fill="#000000" fill-opacity="1"><g transform="translate(410.027936, 198.791263)"><g><path d="M 5.71875 0.15625 C 4.789062 0.15625 3.945312 -0.0507812 3.1875 -0.46875 C 2.4375 -0.894531 1.847656 -1.492188 1.421875 -2.265625 C 0.992188 -3.046875 0.78125 -3.953125 0.78125 -4.984375 C 0.78125 -5.992188 1 -6.890625 1.4375 -7.671875 C 1.875 -8.453125 2.472656 -9.050781 3.234375 -9.46875 C 3.992188 -9.882812 4.847656 -10.09375 5.796875 -10.09375 C 6.734375 -10.09375 7.582031 -9.882812 8.34375 -9.46875 C 9.101562 -9.050781 9.703125 -8.453125 10.140625 -7.671875 C 10.585938 -6.898438 10.8125 -6.003906 10.8125 -4.984375 C 10.8125 -3.953125 10.582031 -3.046875 10.125 -2.265625 C 9.675781 -1.492188 9.066406 -0.894531 8.296875 -0.46875 C 7.523438 -0.0507812 6.664062 0.15625 5.71875 0.15625 Z M 5.71875 -1.28125 C 6.3125 -1.28125 6.867188 -1.421875 7.390625 -1.703125 C 7.910156 -1.984375 8.328125 -2.398438 8.640625 -2.953125 C 8.960938 -3.503906 9.125 -4.179688 9.125 -4.984375 C 9.125 -5.773438 8.96875 -6.445312 8.65625 -7 C 8.34375 -7.5625 7.929688 -7.976562 7.421875 -8.25 C 6.921875 -8.519531 6.375 -8.65625 5.78125 -8.65625 C 5.175781 -8.65625 4.625 -8.519531 4.125 -8.25 C 3.625 -7.976562 3.222656 -7.5625 2.921875 -7 C 2.617188 -6.445312 2.46875 -5.773438 2.46875 -4.984375 C 2.46875 -4.171875 2.613281 -3.484375 2.90625 -2.921875 C 3.195312 -2.367188 3.585938 -1.957031 4.078125 -1.6875 C 4.578125 -1.414062 5.125 -1.28125 5.71875 -1.28125 Z M 3.15625 -11.125 C 3.238281 -11.738281 3.4375 -12.207031 3.75 -12.53125 C 4.070312 -12.851562 4.476562 -13.015625 4.96875 -13.015625 C 5.195312 -13.015625 5.390625 -12.972656 5.546875 -12.890625 C 5.710938 -12.816406 5.910156 -12.707031 6.140625 -12.5625 C 6.304688 -12.445312 6.457031 -12.351562 6.59375 -12.28125 C 6.726562 -12.21875 6.875 -12.1875 7.03125 -12.1875 C 7.226562 -12.1875 7.398438 -12.25 7.546875 -12.375 C 7.691406 -12.507812 7.785156 -12.707031 7.828125 -12.96875 L 8.765625 -12.96875 C 8.691406 -12.363281 8.488281 -11.894531 8.15625 -11.5625 C 7.832031 -11.238281 7.429688 -11.078125 6.953125 -11.078125 C 6.722656 -11.078125 6.519531 -11.113281 6.34375 -11.1875 C 6.164062 -11.269531 5.972656 -11.390625 5.765625 -11.546875 C 5.566406 -11.671875 5.410156 -11.765625 5.296875 -11.828125 C 5.179688 -11.890625 5.046875 -11.921875 4.890625 -11.921875 C 4.679688 -11.921875 4.507812 -11.851562 4.375 -11.71875 C 4.238281 -11.582031 4.148438 -11.382812 4.109375 -11.125 Z M 3.15625 -11.125 "/></g></g></g><g fill="#000000" fill-opacity="1"><g transform="translate(421.617343, 198.791263)"><g><path d="M 10.453125 -5.34375 C 10.453125 -5.03125 10.429688 -4.695312 10.390625 -4.34375 L 2.46875 -4.34375 C 2.519531 -3.363281 2.847656 -2.597656 3.453125 -2.046875 C 4.066406 -1.503906 4.8125 -1.234375 5.6875 -1.234375 C 6.394531 -1.234375 6.988281 -1.398438 7.46875 -1.734375 C 7.945312 -2.066406 8.28125 -2.507812 8.46875 -3.0625 L 10.25 -3.0625 C 9.976562 -2.101562 9.445312 -1.328125 8.65625 -0.734375 C 7.863281 -0.140625 6.875 0.15625 5.6875 0.15625 C 4.75 0.15625 3.90625 -0.0507812 3.15625 -0.46875 C 2.414062 -0.894531 1.832031 -1.492188 1.40625 -2.265625 C 0.988281 -3.046875 0.78125 -3.953125 0.78125 -4.984375 C 0.78125 -6.003906 0.984375 -6.898438 1.390625 -7.671875 C 1.804688 -8.453125 2.382812 -9.050781 3.125 -9.46875 C 3.863281 -9.882812 4.71875 -10.09375 5.6875 -10.09375 C 6.625 -10.09375 7.453125 -9.882812 8.171875 -9.46875 C 8.898438 -9.0625 9.460938 -8.5 9.859375 -7.78125 C 10.253906 -7.0625 10.453125 -6.25 10.453125 -5.34375 Z M 8.75 -5.6875 C 8.75 -6.3125 8.609375 -6.847656 8.328125 -7.296875 C 8.046875 -7.753906 7.664062 -8.097656 7.1875 -8.328125 C 6.71875 -8.566406 6.191406 -8.6875 5.609375 -8.6875 C 4.773438 -8.6875 4.066406 -8.421875 3.484375 -7.890625 C 2.898438 -7.359375 2.566406 -6.625 2.484375 -5.6875 Z M 8.75 -5.6875 "/></g></g></g><g fill="#000000" fill-opacity="1"><g transform="translate(432.844566, 198.791263)"><g><path d="M 4.90625 0.15625 C 4.144531 0.15625 3.460938 0.03125 2.859375 -0.21875 C 2.253906 -0.476562 1.773438 -0.84375 1.421875 -1.3125 C 1.078125 -1.78125 0.882812 -2.316406 0.84375 -2.921875 L 2.546875 -2.921875 C 2.597656 -2.421875 2.832031 -2.015625 3.25 -1.703125 C 3.664062 -1.390625 4.210938 -1.234375 4.890625 -1.234375 C 5.515625 -1.234375 6.007812 -1.367188 6.375 -1.640625 C 6.738281 -1.921875 6.921875 -2.273438 6.921875 -2.703125 C 6.921875 -3.128906 6.726562 -3.445312 6.34375 -3.65625 C 5.957031 -3.875 5.359375 -4.085938 4.546875 -4.296875 C 3.804688 -4.484375 3.203125 -4.675781 2.734375 -4.875 C 2.273438 -5.070312 1.878906 -5.367188 1.546875 -5.765625 C 1.210938 -6.160156 1.046875 -6.675781 1.046875 -7.3125 C 1.046875 -7.820312 1.195312 -8.285156 1.5 -8.703125 C 1.800781 -9.128906 2.226562 -9.46875 2.78125 -9.71875 C 3.34375 -9.96875 3.976562 -10.09375 4.6875 -10.09375 C 5.789062 -10.09375 6.675781 -9.8125 7.34375 -9.25 C 8.019531 -8.695312 8.382812 -7.9375 8.4375 -6.96875 L 6.796875 -6.96875 C 6.753906 -7.488281 6.539062 -7.90625 6.15625 -8.21875 C 5.78125 -8.53125 5.273438 -8.6875 4.640625 -8.6875 C 4.046875 -8.6875 3.570312 -8.5625 3.21875 -8.3125 C 2.875 -8.0625 2.703125 -7.726562 2.703125 -7.3125 C 2.703125 -6.988281 2.804688 -6.71875 3.015625 -6.5 C 3.222656 -6.289062 3.488281 -6.125 3.8125 -6 C 4.132812 -5.875 4.578125 -5.734375 5.140625 -5.578125 C 5.859375 -5.378906 6.4375 -5.1875 6.875 -5 C 7.320312 -4.8125 7.707031 -4.53125 8.03125 -4.15625 C 8.351562 -3.789062 8.519531 -3.304688 8.53125 -2.703125 C 8.53125 -2.160156 8.378906 -1.671875 8.078125 -1.234375 C 7.773438 -0.796875 7.347656 -0.453125 6.796875 -0.203125 C 6.242188 0.0351562 5.613281 0.15625 4.90625 0.15625 Z M 4.90625 0.15625 "/></g></g></g></svg>